<svg xmlns="http://www.w3.org/2000/svg"  viewBox="0 0 50 50" width="500px" height="500px"><path d="M 5 0 C 3.492188 0 2.199219 0.9375 1.34375 2.21875 C 0.488281 3.5 0 5.167969 0 7 C 0 8.832031 0.488281 10.5 1.34375 11.78125 C 2.199219 13.0625 3.492188 14 5 14 L 8 14 L 8 41 C 8 46.414063 11.410156 50 15 50 L 45 50 C 45.03125 50 45.0625 50 45.09375 50 C 45.105469 50 45.113281 50 45.125 50 C 45.175781 50 45.230469 49.972656 45.28125 49.96875 C 46.667969 49.859375 47.855469 48.984375 48.65625 47.78125 C 49.511719 46.5 50 44.832031 50 43 C 50 41.167969 49.511719 39.5 48.65625 38.21875 C 47.800781 36.9375 46.507813 36 45 36 L 40 36 L 40 27.15625 C 40.003906 27.105469 40.003906 27.050781 40 27 L 40 13 C 40.007813 12.9375 40.007813 12.875 40 12.8125 L 40 9 C 40 3.585938 36.589844 0 33 0 Z M 5 2 L 29.5625 2 C 29.5 2.085938 29.402344 2.128906 29.34375 2.21875 C 28.488281 3.5 28 5.167969 28 7 C 28 8.832031 28.488281 10.5 29.34375 11.78125 C 29.402344 11.871094 29.5 11.914063 29.5625 12 L 9.21875 12 C 9.117188 11.972656 9.011719 11.960938 8.90625 11.96875 C 8.875 11.976563 8.84375 11.988281 8.8125 12 L 5 12 C 4.308594 12 3.59375 11.582031 3 10.6875 C 2.40625 9.792969 2 8.46875 2 7 C 2 5.53125 2.40625 4.207031 3 3.3125 C 3.59375 2.417969 4.308594 2 5 2 Z M 32.96875 2 C 32.980469 2 32.988281 2 33 2 C 35.210938 2 38 4.414063 38 9 L 38 12.8125 C 37.992188 12.875 37.992188 12.9375 38 13 L 38 27 C 38 27.03125 38 27.0625 38 27.09375 L 38 36.53125 C 37.867188 36.808594 37.867188 37.128906 38 37.40625 L 38 41 C 38 43.984375 39.03125 46.421875 40.5625 48 L 15 48 C 12.789063 48 10 45.585938 10 41 L 10 14 L 33 14 L 33 12 C 32.308594 12 31.59375 11.582031 31 10.6875 C 30.40625 9.792969 30 8.46875 30 7 C 30 5.53125 30.40625 4.207031 31 3.3125 C 31.585938 2.433594 32.285156 2.011719 32.96875 2 Z M 14.71875 21 C 14.167969 21.078125 13.78125 21.589844 13.859375 22.140625 C 13.9375 22.691406 14.449219 23.078125 15 23 L 17 23 C 17.359375 23.003906 17.695313 22.816406 17.878906 22.503906 C 18.058594 22.191406 18.058594 21.808594 17.878906 21.496094 C 17.695313 21.183594 17.359375 20.996094 17 21 L 15 21 C 14.96875 21 14.9375 21 14.90625 21 C 14.875 21 14.84375 21 14.8125 21 C 14.78125 21 14.75 21 14.71875 21 Z M 20.71875 21 C 20.167969 21.078125 19.78125 21.589844 19.859375 22.140625 C 19.9375 22.691406 20.449219 23.078125 21 23 L 33 23 C 33.359375 23.003906 33.695313 22.816406 33.878906 22.503906 C 34.058594 22.191406 34.058594 21.808594 33.878906 21.496094 C 33.695313 21.183594 33.359375 20.996094 33 21 L 21 21 C 20.96875 21 20.9375 21 20.90625 21 C 20.875 21 20.84375 21 20.8125 21 C 20.78125 21 20.75 21 20.71875 21 Z M 14.71875 27 C 14.167969 27.078125 13.78125 27.589844 13.859375 28.140625 C 13.9375 28.691406 14.449219 29.078125 15 29 L 17 29 C 17.359375 29.003906 17.695313 28.816406 17.878906 28.503906 C 18.058594 28.191406 18.058594 27.808594 17.878906 27.496094 C 17.695313 27.183594 17.359375 26.996094 17 27 L 15 27 C 14.96875 27 14.9375 27 14.90625 27 C 14.875 27 14.84375 27 14.8125 27 C 14.78125 27 14.75 27 14.71875 27 Z M 20.71875 27 C 20.167969 27.078125 19.78125 27.589844 19.859375 28.140625 C 19.9375 28.691406 20.449219 29.078125 21 29 L 33 29 C 33.359375 29.003906 33.695313 28.816406 33.878906 28.503906 C 34.058594 28.191406 34.058594 27.808594 33.878906 27.496094 C 33.695313 27.183594 33.359375 26.996094 33 27 L 21 27 C 20.96875 27 20.9375 27 20.90625 27 C 20.875 27 20.84375 27 20.8125 27 C 20.78125 27 20.75 27 20.71875 27 Z M 14.71875 33 C 14.167969 33.078125 13.78125 33.589844 13.859375 34.140625 C 13.9375 34.691406 14.449219 35.078125 15 35 L 17 35 C 17.359375 35.003906 17.695313 34.816406 17.878906 34.503906 C 18.058594 34.191406 18.058594 33.808594 17.878906 33.496094 C 17.695313 33.183594 17.359375 32.996094 17 33 L 15 33 C 14.96875 33 14.9375 33 14.90625 33 C 14.875 33 14.84375 33 14.8125 33 C 14.78125 33 14.75 33 14.71875 33 Z M 20.71875 33 C 20.167969 33.078125 19.78125 33.589844 19.859375 34.140625 C 19.9375 34.691406 20.449219 35.078125 21 35 L 33 35 C 33.359375 35.003906 33.695313 34.816406 33.878906 34.503906 C 34.058594 34.191406 34.058594 33.808594 33.878906 33.496094 C 33.695313 33.183594 33.359375 32.996094 33 33 L 21 33 C 20.96875 33 20.9375 33 20.90625 33 C 20.875 33 20.84375 33 20.8125 33 C 20.78125 33 20.75 33 20.71875 33 Z M 40 38 L 45 38 C 45.691406 38 46.40625 38.417969 47 39.3125 C 47.59375 40.207031 48 41.53125 48 43 C 48 44.46875 47.59375 45.792969 47 46.6875 C 46.421875 47.554688 45.734375 47.976563 45.0625 48 C 45.042969 48 45.019531 48 45 48 C 42.789063 48 40 45.585938 40 41 Z M 14.71875 39 C 14.167969 39.078125 13.78125 39.589844 13.859375 40.140625 C 13.9375 40.691406 14.449219 41.078125 15 41 L 17 41 C 17.359375 41.003906 17.695313 40.816406 17.878906 40.503906 C 18.058594 40.191406 18.058594 39.808594 17.878906 39.496094 C 17.695313 39.183594 17.359375 38.996094 17 39 L 15 39 C 14.96875 39 14.9375 39 14.90625 39 C 14.875 39 14.84375 39 14.8125 39 C 14.78125 39 14.75 39 14.71875 39 Z M 20.71875 39 C 20.167969 39.078125 19.78125 39.589844 19.859375 40.140625 C 19.9375 40.691406 20.449219 41.078125 21 41 L 33 41 C 33.359375 41.003906 33.695313 40.816406 33.878906 40.503906 C 34.058594 40.191406 34.058594 39.808594 33.878906 39.496094 C 33.695313 39.183594 33.359375 38.996094 33 39 L 21 39 C 20.96875 39 20.9375 39 20.90625 39 C 20.875 39 20.84375 39 20.8125 39 C 20.78125 39 20.75 39 20.71875 39 Z"/></svg>