<svg width="140" height="115" viewBox="0 0 140 115" fill="none" xmlns="http://www.w3.org/2000/svg">
<path fill-rule="evenodd" clip-rule="evenodd" d="M61.5493 96.554L63.4762 93.3793L61.8797 91.0257L59.2371 90.4783C58.026 89.0552 59.1821 88.07 58.7967 86.3731C57.2002 84.0742 53.8419 83.8006 53.1813 82.4869C54.1722 85.0595 56.7047 87.2489 56.0991 90.3141L53.3464 91.6825L49.1624 91.8467L44.5379 91.6825L42.0055 93.2151H37.1058L33.6925 91.5731L27.3063 91.3541L22.1313 90.752L17.1215 87.9605L17.2867 85.169L15.7452 83.1437H14.2037L13.6532 82.4869L12.8274 78.9291L9.90956 76.5754L11.8364 75.7544V74.386L9.79944 73.8386L8.80849 69.7335L7.9827 64.7525L7.1569 62.6178L7.32205 58.4579L8.69838 55.8853L10.35 51.6159L11.5061 49.0981V46.7444L9.96461 44.7192L9.79944 42.3108L11.451 42.9676L12.9925 42.3108L14.9194 40.0119L15.4699 38.0961L16.2957 36.0709L18.3327 37.9867L19.9843 34.8667L22.3516 32.3489L24.1683 31.9657L26.3704 28.2437L27.7468 29.4479L31.3252 27.4227L30.1691 26.0543L30.4994 22.168L31.0499 20.2523L33.3622 15.9829L35.1239 14.9976L34.7385 12.8629L36.335 10.4545L38.6473 7.71775L39.0877 5.802L42.1156 7.60828L45.4739 6.40409H49.6579L51.2544 3.99571L55.4385 3.33889L59.0169 0.985245L66.339 0L73.2206 4.10519L82.3044 1.5326L86.2131 3.6673L90.6174 4.32413L95.0216 4.98096L97.6642 7.27986L98.0495 12.2608L101.022 13.7934L103.004 17.8986L103.94 17.9534L103.004 21.128L104.381 23.7554L107.684 23.9196L110.987 25.8353L112.529 28.1342L116.933 29.8858L117.483 30.1047L120.842 30.871L122.273 33.4436L121.337 38.5888L121.667 38.9172L123.484 40.9424L122.493 44.2813L123.924 45.8139L122.273 50.3022L126.402 53.6959L124.64 54.6264L126.072 57.2537L126.237 59.6073L128.439 61.9062L131.192 67.0514L130.806 68.0366L133.394 74.9881L130.366 77.9986L129.32 80.1333L129.485 82.1038L126.347 83.2532H123.814L121.998 86.2089L119.63 86.0447L116.272 88.6721V89.0552L113.685 92.2299L111.868 91.5731L108.84 89.6026L104.931 89.0552L102.013 89.8215L100.252 90.6426L96.7283 92.3941L94.0857 92.2299L90.7275 89.8215L86.9288 90.2594L84.9469 91.9015L80.7629 92.0657H75.3677L74.2116 90.6426H72.6701L72.1195 92.0657L72.3398 92.4488L73.7161 95.2404L74.3767 97.2109H74.3217L69.9174 97.3751L68.7063 97.9224H66.6142L66.0087 97.5393L62.265 97.3751L61.5493 96.554ZM80.1573 54.9C79.7719 55.3379 79.7169 55.94 79.5517 56.6516C79.1113 58.5673 78.5608 60.5378 77.8451 62.3441C75.0374 69.0766 70.6882 66.7777 69.5871 73.7839C68.486 81.0638 69.5871 87.03 75.4227 78.327C76.0283 77.3965 76.3036 75.9186 76.7991 74.8239C78.5057 71.0471 80.2674 68.6935 80.7629 64.0409C81.0382 62.2346 80.928 56.2137 80.1573 54.9ZM60.7786 80.0785L62.8156 75.6449C65.4031 69.7882 65.293 66.3946 64.0818 60.2642C63.9717 59.6073 64.0267 59.2789 63.5313 59.0052C62.7605 60.4284 62.8706 65.3546 60.8887 66.9967C59.8427 67.8724 59.5674 67.2703 59.072 68.803C57.4754 73.8386 59.7326 79.8048 60.7786 80.0785ZM57.3653 59.7168C58.1911 59.2789 60.173 53.6411 58.3563 49.4265C58.026 48.6054 57.6956 47.9486 57.3653 47.1823C57.035 46.416 56.9799 45.4307 56.5946 44.7192C56.1541 43.8981 54.5026 41.5992 53.0712 41.8182C51.3645 42.1466 49.7129 49.0433 52.9611 51.2327C54.7228 52.4369 55.2733 52.2727 56.2643 54.4622C56.9249 55.94 56.98 58.9505 57.3653 59.7168ZM75.9182 39.2456C75.4778 40.3951 74.2666 42.8582 73.5509 44.0076C69.9174 50.1928 70.9084 46.6349 69.2568 54.1337C68.9815 55.3927 67.44 58.6768 68.7063 59.7715C70.1376 61.0305 72.7802 58.3484 73.2757 57.801C74.3767 56.5969 75.4227 54.9548 75.4778 52.7653C75.5879 50.357 75.2025 48.1128 75.2576 45.7044C75.3677 43.6245 76.0283 41.1614 75.9182 39.2456ZM0 111.497H140V115H0V111.497ZM21.0303 45.4307C18.8282 49.3717 18.2776 53.7506 17.8372 58.02C20.3696 65.2999 25.9851 69.5693 29.9489 75.3165C25.5446 65.902 21.3606 55.9948 21.0303 45.4307ZM29.5635 51.2875C27.5266 42.5845 29.6186 39.6835 32.7015 30.7615C26.5906 40.5593 22.0763 43.515 28.5175 54.1885C28.7377 52.9296 29.5085 51.178 29.5635 51.2875ZM105.922 47.7844C106.142 47.7844 106.252 48.8244 106.363 49.3717C115.722 33.0604 109.941 36.7277 105.757 28.2437C108.785 37.2751 110.106 40.8329 105.922 47.7844ZM109.501 68.803C109.721 68.7482 108.069 72.3061 108.179 72.9081C116.878 56.8158 121.447 62.3441 116.107 43.4055C115.887 57.0347 112.363 63.4936 109.501 68.803ZM48.6119 29.2289C46.4097 28.0248 45.9693 27.4227 45.3087 19.4312C40.7393 32.0752 44.9784 35.5783 46.2997 41.3256C49.1624 37.0014 49.8781 33.3889 48.6119 29.2289ZM67.1648 43.6792C70.6882 38.0961 73.7711 18.8291 67.7704 9.08615C72.2847 21.7301 63.6414 22.8248 64.4121 32.0752C63.9717 34.9215 68.2108 33.4436 67.1648 43.6792ZM89.7916 35.1951C89.3512 28.3532 93.0948 25.9448 86.8738 14.8881C88.9107 29.8858 83.4605 25.069 83.5706 32.7868C84.0661 35.9067 86.7086 47.0181 89.7916 35.1951ZM86.4334 81.228C101.463 68.3651 99.7012 46.3065 93.7004 35.5783C94.7464 55.4474 85.8278 59.3884 87.149 67.1061C95.7373 68.9672 85.3323 77.8344 86.4334 81.228ZM102.068 80.2975C106.858 72.2513 103.004 73.565 105.262 52.9843C100.527 78.2175 90.6174 78.7649 90.6724 86.4279C97.0036 83.0343 98.8754 84.4027 102.068 80.2975ZM49.9882 66.4493C47.9512 62.8367 40.0786 54.4622 40.1337 38.1509C37.2159 69.4598 48.2265 71.1019 48.2816 78.8743C51.4746 73.7292 50.9792 71.6492 49.9882 66.4493ZM43.9874 89.6573C46.63 82.7058 33.142 74.7144 31.7106 55.4474C32.7015 75.4807 31.7106 85.2237 37.326 86.5374C41.6752 87.7963 41.7853 87.1942 43.9874 89.6573ZM80.873 85.5521C82.91 81.9395 81.0382 83.4174 81.4786 76.247C80.1022 81.6111 80.2674 81.1185 78.6709 83.5816C77.2946 85.8258 77.4597 90.2594 80.873 85.5521ZM57.8057 13.7387C57.1451 11.1114 55.8789 10.783 55.4385 4.65255C54.8879 11.604 52.6858 10.783 53.6217 16.0923C52.5757 23.3175 58.7967 17.0776 57.8057 13.7387Z" fill="#004411"/>
</svg>
