<svg width="30" height="25" viewBox="0 0 30 25" fill="none" xmlns="http://www.w3.org/2000/svg">
<path fill-rule="evenodd" clip-rule="evenodd" d="M13.2277 20.1988L13.6396 19.5374L13.2983 19.0471L12.7333 18.933C12.4744 18.6365 12.7216 18.4313 12.6392 18.0778C12.2979 17.5988 11.5799 17.5418 11.4386 17.2681C11.6505 17.8041 12.1919 18.2602 12.0624 18.8988L11.4739 19.1839L10.5794 19.2181L9.59074 19.1839L9.04933 19.5032H8.00181L7.27207 19.1611L5.90675 19.1155L4.80037 18.99L3.72931 18.4085L3.76462 17.8269L3.43506 17.405H3.1055L2.98781 17.2681L2.81126 16.5269L2.18744 16.0366L2.59939 15.8655V15.5805L2.1639 15.4664L1.95204 14.6112L1.77549 13.5735L1.59894 13.1287L1.63425 12.2621L1.9285 11.7261L2.28161 10.8367L2.52877 10.3121V9.82179L2.19921 9.39987L2.1639 8.89812L2.51699 9.03496L2.84655 8.89812L3.25851 8.41919L3.37621 8.02006L3.55276 7.59815L3.98825 7.99727L4.34135 7.34727L4.84747 6.82273L5.23586 6.7429L5.70666 5.96748L6.00092 6.21835L6.76596 5.79644L6.51879 5.51135L6.58941 4.70171L6.7071 4.3026L7.20146 3.41314L7.5781 3.20787L7.4957 2.76314L7.83702 2.26139L8.33137 1.69124L8.42553 1.29212L9.07287 1.66843L9.79085 1.41756H10.6854L11.0267 0.915814L11.9212 0.778976L12.6863 0.288633L14.2517 0.083374L15.7229 0.938622L17.665 0.402666L18.5006 0.847395L20.3838 1.12107L20.9488 1.60001L21.0312 2.63771L21.6667 2.957L22.0904 3.81225L22.2905 3.82367L22.0904 4.48504L22.3848 5.03242L23.0909 5.06662L23.7971 5.46573L24.1268 5.94467L25.1859 6.35519L25.904 6.51483L26.21 7.05079L26.0099 8.12271L26.0804 8.19112L26.4689 8.61304L26.257 9.30865L26.5629 9.62794L26.21 10.563L27.0927 11.27L26.716 11.4639L27.0222 12.0112L27.0574 12.5016L27.5282 12.9805L28.1168 14.0524L28.0343 14.2577L28.5876 15.7059L27.9402 16.3331L27.7166 16.7778L27.7518 17.1883L27.081 17.4278H26.5394L26.1512 18.0436L25.6449 18.0094L24.927 18.5567V18.6365L24.3739 19.2979L23.9855 19.1611L23.3381 18.7506L22.5024 18.6365L21.8785 18.7962L21.502 18.9673L20.7487 19.3321L20.1837 19.2979L19.4658 18.7962L18.6536 18.8874L18.2299 19.2295L17.3354 19.2637H16.1819L15.9348 18.9673H15.6052L15.4875 19.2637L15.5346 19.3435L15.8288 19.9251L15.9701 20.3356H15.9583L15.0167 20.3699L14.7578 20.4839H14.3105L14.1811 20.4041L13.3807 20.3699L13.2277 20.1988ZM17.2059 11.5209C17.1235 11.6121 17.1118 11.7375 17.0765 11.8858C16.9823 12.2849 16.8646 12.6954 16.7116 13.0717C16.1113 14.4743 15.1815 13.9954 14.9461 15.455C14.7107 16.9717 14.9461 18.2146 16.1937 16.4015C16.3232 16.2076 16.382 15.8997 16.488 15.6717C16.8528 14.8849 17.2295 14.3945 17.3354 13.4252C17.3943 13.0489 17.3707 11.7946 17.2059 11.5209ZM13.0629 16.7664L13.4984 15.8427C14.0516 14.6226 14.028 13.9156 13.7691 12.6384C13.7456 12.5016 13.7573 12.4331 13.6514 12.3761C13.4866 12.6726 13.5101 13.6989 13.0864 14.041C12.8628 14.2235 12.8039 14.098 12.698 14.4173C12.3567 15.4664 12.8393 16.7094 13.0629 16.7664ZM12.3332 12.5244C12.5097 12.4331 12.9334 11.2586 12.545 10.3806C12.4744 10.2095 12.4038 10.0727 12.3332 9.91302C12.2625 9.75337 12.2508 9.5481 12.1684 9.39987C12.0742 9.22881 11.7211 8.74987 11.4151 8.7955C11.0502 8.86392 10.6971 10.3007 11.3916 10.7569C11.7682 11.0077 11.8859 10.9735 12.0978 11.4297C12.239 11.7375 12.2508 12.3647 12.3332 12.5244ZM16.2996 8.25954C16.2055 8.49902 15.9465 9.01217 15.7935 9.25162C15.0167 10.5402 15.2286 9.79898 14.8755 11.3612C14.8166 11.6235 14.4871 12.3077 14.7578 12.5358C15.0638 12.7981 15.6288 12.2393 15.7347 12.1252C15.9701 11.8744 16.1937 11.5323 16.2055 11.0761C16.229 10.5744 16.1466 10.1069 16.1584 9.60512C16.1819 9.17181 16.3232 8.65867 16.2996 8.25954ZM0.0688477 23.3119H29.9999V24.0417H0.0688477V23.3119ZM4.56498 9.5481C4.09419 10.3691 3.97647 11.2814 3.88232 12.1709C4.42373 13.6875 5.62428 14.577 6.47172 15.7743C5.53011 13.813 4.6356 11.749 4.56498 9.5481ZM6.38932 10.7683C5.95384 8.95515 6.4011 8.35077 7.0602 6.49202C5.75373 8.53323 4.78861 9.149 6.16569 11.3726C6.21277 11.1104 6.37756 10.7455 6.38932 10.7683ZM22.7142 10.0385C22.7613 10.0385 22.7848 10.2551 22.8085 10.3691C24.8094 6.97096 23.5735 7.73498 22.679 5.96748C23.3263 7.84902 23.6087 8.59023 22.7142 10.0385ZM23.4794 14.4173C23.5264 14.4059 23.1733 15.1471 23.1968 15.2726C25.0566 11.92 26.0334 13.0717 24.8917 9.12619C24.8447 11.9656 24.0913 13.3112 23.4794 14.4173ZM10.4617 6.17273C9.99092 5.92187 9.89677 5.79644 9.75554 4.13154C8.77863 6.76571 9.68492 7.49552 9.9674 8.69287C10.5794 7.792 10.7324 7.0394 10.4617 6.17273ZM14.4282 9.18321C15.1815 8.02006 15.8406 4.0061 14.5577 1.97632C15.5228 4.61048 13.6749 4.83854 13.8397 6.76571C13.7456 7.35869 14.6518 7.05079 14.4282 9.18321ZM19.2657 7.41569C19.1715 5.99029 19.9719 5.48854 18.6419 3.18506C19.0773 6.30958 17.9121 5.30608 17.9357 6.91396C18.0416 7.56394 18.6065 9.87881 19.2657 7.41569ZM18.5477 17.0059C21.7609 14.3261 21.3843 9.73056 20.1013 7.49552C20.325 11.6349 18.4182 12.456 18.7007 14.0638C20.5368 14.4515 18.3123 16.2989 18.5477 17.0059ZM21.8903 16.812C22.9144 15.1357 22.0904 15.4094 22.5731 11.1218C21.5608 16.3787 19.4422 16.4927 19.454 18.0892C20.8075 17.3822 21.2077 17.6673 21.8903 16.812ZM10.756 13.927C10.3205 13.1744 8.63738 11.4297 8.64916 8.03148C8.02535 14.5542 10.3793 14.8963 10.3911 16.5155C11.0738 15.4436 10.9678 15.0103 10.756 13.927ZM9.47305 18.762C10.038 17.3138 7.15438 15.6489 6.84836 11.6349C7.0602 15.8085 6.84835 17.8383 8.04889 18.112C8.97872 18.3743 9.00226 18.2488 9.47305 18.762ZM17.3589 17.9067C17.7944 17.1541 17.3943 17.462 17.4884 15.9682C17.1941 17.0857 17.2295 16.9831 16.8881 17.4962C16.5939 17.9637 16.6292 18.8874 17.3589 17.9067ZM12.4273 2.9456C12.2861 2.39825 12.0154 2.32983 11.9212 1.05266C11.8035 2.50087 11.3327 2.32983 11.5328 3.43594C11.3092 4.94119 12.6392 3.64121 12.4273 2.9456Z" fill="#004411"/>
</svg>
