<?xml version="1.0" encoding="utf-8"?>
<!-- Generator: Adobe Illustrator 26.2.1, SVG Export Plug-In . SVG Version: 6.00 Build 0)  -->
<svg version="1.1" id="Layer_1" xmlns="http://www.w3.org/2000/svg" xmlns:xlink="http://www.w3.org/1999/xlink" x="0px" y="0px"
	 viewBox="0 0 792 612" style="enable-background:new 0 0 792 612;" xml:space="preserve">
<style type="text/css">
	.st0{fill-rule:evenodd;clip-rule:evenodd;fill:#004411;}
	.st1{fill-rule:evenodd;clip-rule:evenodd;fill:#747373;}
</style>
<g>
	<path class="st0" d="M493.8,235.3l3.5-5.8l-2.9-4.3l-4.8-1c-2.2-2.6-0.1-4.4-0.8-7.5c-2.9-4.2-9-4.7-10.2-7.1
		c1.8,4.7,6.4,8.7,5.3,14.3l-5,2.5l-7.6,0.3l-8.4-0.3l-4.6,2.8h-8.9l-6.2-3l-11.6-0.4l-9.4-1.1l-9.1-5.1l0.3-5.1l-2.8-3.7h-2.8
		l-1-1.2l-1.5-6.5l-5.3-4.3l3.5-1.5v-2.5l-3.7-1l-1.8-7.5l-1.5-9.1l-1.5-3.9l0.3-7.6l2.5-4.7l3-7.8l2.1-4.6v-4.3l-2.8-3.7l-0.3-4.4
		l3,1.2l2.8-1.2l3.5-4.2l1-3.5l1.5-3.7l3.7,3.5l3-5.7l4.3-4.6l3.3-0.7l4-6.8l2.5,2.2l6.5-3.7l-2.1-2.5l0.6-7.1l1-3.5l4.2-7.8
		l3.2-1.8l-0.7-3.9l2.9-4.4l4.2-5l0.8-3.5l5.5,3.3l6.1-2.2h7.6l2.9-4.4l7.6-1.2l6.5-4.3l13.3-1.8l12.5,7.5l16.5-4.7l7.1,3.9l8,1.2
		l8,1.2l4.8,4.2l0.7,9.1l5.4,2.8l3.6,7.5l1.7,0.1l-1.7,5.8l2.5,4.8l6,0.3l6,3.5l2.8,4.2l8,3.2l1,0.4l6.1,1.4l2.6,4.7l-1.7,9.4
		l0.6,0.6l3.3,3.7l-1.8,6.1l2.6,2.8l-3,8.2l7.5,6.2l-3.2,1.7l2.6,4.8l0.3,4.3l4,4.2l5,9.4l-0.7,1.8l4.7,12.7l-5.5,5.5l-1.9,3.9
		l0.3,3.6l-5.7,2.1h-4.6l-3.3,5.4l-4.3-0.3l-6.1,4.8v0.7l-4.7,5.8l-3.3-1.2l-5.5-3.6l-7.1-1l-5.3,1.4l-3.2,1.5l-6.4,3.2l-4.8-0.3
		l-6.1-4.4l-6.9,0.8l-3.6,3l-7.6,0.3h-9.8l-2.1-2.6h-2.8l-1,2.6l0.4,0.7l2.5,5.1l1.2,3.6h-0.1l-8,0.3l-2.2,1H503l-1.1-0.7l-6.8-0.3
		L493.8,235.3L493.8,235.3z M527.6,159.2c-0.7,0.8-0.8,1.9-1.1,3.2c-0.8,3.5-1.8,7.1-3.1,10.4c-5.1,12.3-13,8.1-15,20.9
		c-2,13.3,0,24.2,10.6,8.3c1.1-1.7,1.6-4.4,2.5-6.4c3.1-6.9,6.3-11.2,7.2-19.7C529.2,172.6,529,161.6,527.6,159.2L527.6,159.2z
		 M492.4,205.2l3.7-8.1c4.7-10.7,4.5-16.9,2.3-28.1c-0.2-1.2-0.1-1.8-1-2.3c-1.4,2.6-1.2,11.6-4.8,14.6c-1.9,1.6-2.4,0.5-3.3,3.3
		C486.4,193.8,490.5,204.7,492.4,205.2L492.4,205.2z M486.2,168c1.5-0.8,5.1-11.1,1.8-18.8c-0.6-1.5-1.2-2.7-1.8-4.1
		c-0.6-1.4-0.7-3.2-1.4-4.5c-0.8-1.5-3.8-5.7-6.4-5.3c-3.1,0.6-6.1,13.2-0.2,17.2c3.2,2.2,4.2,1.9,6,5.9
		C485.4,161.1,485.5,166.6,486.2,168L486.2,168z M519.9,130.6c-0.8,2.1-3,6.6-4.3,8.7c-6.6,11.3-4.8,4.8-7.8,18.5
		c-0.5,2.3-3.3,8.3-1,10.3c2.6,2.3,7.4-2.6,8.3-3.6c2-2.2,3.9-5.2,4-9.2c0.2-4.4-0.5-8.5-0.4-12.9
		C518.9,138.6,520.1,134.1,519.9,130.6L519.9,130.6z M382,262.6h254.3v6.4H382V262.6L382,262.6z M420.2,141.9c-4,7.2-5,15.2-5.8,23
		c4.6,13.3,14.8,21.1,22,31.6C428.4,179.3,420.8,161.2,420.2,141.9L420.2,141.9z M435.7,152.6c-3.7-15.9,0.1-21.2,5.7-37.5
		c-11.1,17.9-19.3,23.3-7.6,42.8C434.2,155.6,435.6,152.4,435.7,152.6L435.7,152.6z M574.4,146.2c0.4,0,0.6,1.9,0.8,2.9
		c17-29.8,6.5-23.1-1.1-38.6C579.6,127,582,133.5,574.4,146.2L574.4,146.2z M580.9,184.6c0.4-0.1-2.6,6.4-2.4,7.5
		c15.8-29.4,24.1-19.3,14.4-53.9C592.5,163.1,586.1,174.9,580.9,184.6L580.9,184.6z M470.3,112.3c-4-2.2-4.8-3.3-6-17.9
		c-8.3,23.1-0.6,29.5,1.8,40C471.3,126.5,472.6,119.9,470.3,112.3L470.3,112.3z M504,138.7c6.4-10.2,12-45.4,1.1-63.2
		c8.2,23.1-7.5,25.1-6.1,42C498.2,122.7,505.9,120,504,138.7L504,138.7z M545.1,123.2c-0.8-12.5,6-16.9-5.3-37.1
		c3.7,27.4-6.2,18.6-6,32.7C534.7,124.5,539.5,144.8,545.1,123.2L545.1,123.2z M539,207.3c27.3-23.5,24.1-63.8,13.2-83.4
		c1.9,36.3-14.3,43.5-11.9,57.6C555.9,184.9,537,201.1,539,207.3L539,207.3z M567.4,205.6c8.7-14.7,1.7-12.3,5.8-49.9
		c-8.6,46.1-26.6,47.1-26.5,61.1C558.2,210.6,561.6,213.1,567.4,205.6L567.4,205.6z M472.8,180.3c-3.7-6.6-18-21.9-17.9-51.7
		c-5.3,57.2,14.7,60.2,14.8,74.4C475.5,193.6,474.6,189.8,472.8,180.3L472.8,180.3z M461.9,222.7c4.8-12.7-19.7-27.3-22.3-62.5
		c1.8,36.6,0,54.4,10.2,56.8C457.7,219.3,457.9,218.2,461.9,222.7L461.9,222.7z M528.9,215.2c3.7-6.6,0.3-3.9,1.1-17
		c-2.5,9.8-2.2,8.9-5.1,13.4C522.4,215.7,522.7,223.8,528.9,215.2L528.9,215.2z M487,84c-1.2-4.8-3.5-5.4-4.3-16.6
		c-1,12.7-5,11.2-3.3,20.9C477.5,101.5,488.8,90.1,487,84z"/>
	<path class="st1" d="M383.8,360.1c0.3-3.7,0.5-7.6,0.7-11.9c0.2-4.2,0.2-9.8,0.2-16.6c0-6.6-0.1-12.1-0.2-16.6
		c-0.2-4.5-0.4-8.5-0.7-12c1.2,0.2,2.4,0.3,3.6,0.4c1.2,0.1,2.4,0.1,3.6,0.1c1.2,0,2.4,0,3.6-0.1c1.2-0.1,2.4-0.2,3.5-0.4
		c-0.3,3.6-0.6,7.6-0.7,12.1c-0.2,4.5-0.2,10-0.2,16.5c0,7.1,0.1,12.7,0.2,16.9c0.1,4.2,0.4,8,0.7,11.5c-1.3-0.1-2.6-0.3-3.8-0.3
		c-1.2-0.1-2.3-0.1-3.4-0.1c-1.1,0-2.3,0-3.5,0.1C386.4,359.9,385.2,360,383.8,360.1z"/>
	<path class="st1" d="M462.4,357.2c-4.6,1.3-9,2.3-13.1,3c-4.1,0.7-8,1-11.9,1c-9.3,0-16.7-2.6-22-7.9c-5.3-5.3-8-12.5-8-21.6
		c0-9.2,2.9-16.5,8.7-21.7c5.8-5.3,13.8-7.9,24.1-7.9c4.3,0,8.2,0.4,11.7,1.3c3.5,0.8,6.8,2.1,9.6,3.9c-0.7,1.9-1.3,3.6-1.7,5.2
		c-0.4,1.6-0.7,3.2-0.9,4.6h-0.7c-1.8-3.4-4.2-5.9-7.2-7.6c-3-1.7-6.5-2.5-10.6-2.5c-6.3,0-11.2,2.1-14.6,6.4
		c-3.4,4.3-5.1,10.4-5.1,18.4c0,7.9,1.7,14,5.1,18.3c3.4,4.2,8.3,6.4,14.6,6.4c1.9,0,3.6-0.2,5.1-0.5c1.6-0.3,3.1-0.8,4.5-1.4
		c0.1-1.3,0.2-2.6,0.2-3.8c0-1.3,0.1-2.5,0.1-3.9c0-2.3-0.1-4.5-0.2-6.5c-0.1-2-0.3-4-0.5-5.8c1.1,0.1,2.1,0.2,3.3,0.2
		c1.1,0.1,2.3,0.1,3.6,0.1c1.1,0,2.2,0,3.2-0.1c1-0.1,1.9-0.1,2.8-0.2c-0.1,1.9-0.2,4-0.2,6.1c-0.1,2.1-0.1,4.4-0.1,6.9
		c0,2.7,0,4.7,0,6C462.4,354.8,462.4,356,462.4,357.2z"/>
	<path class="st1" d="M485.7,330.4h0.3c4.6,0,7.9-1,10-2.9c2.1-2,3.1-5.1,3.1-9.3c0-3.6-0.9-6.2-2.7-7.9c-1.8-1.7-4.7-2.5-8.6-2.5
		c-0.2,0-0.5,0-0.9,0c-0.4,0-0.7,0-0.9,0c-0.1,1.7-0.2,3.4-0.2,5.1c0,1.7-0.1,3.4-0.1,5V330.4L485.7,330.4z M472.6,360.1
		c0.4-3.9,0.6-8,0.8-12.4c0.2-4.4,0.3-9.8,0.3-16c0-5.9-0.1-11.1-0.3-15.8c-0.2-4.6-0.5-8.9-0.8-12.9c0.8,0.1,1.6,0.2,2.3,0.3
		c0.8,0.1,1.5,0.1,2.2,0.1c0.3,0,2.1-0.1,5.4-0.2c3.3-0.1,6.5-0.2,9.5-0.2c6.8,0,11.8,1.2,15.1,3.5c3.3,2.4,5,6,5,10.8
		c0,3.8-1.1,6.9-3.4,9.4c-2.3,2.4-5.6,4.2-10.1,5.3l18.8,28.1c-1.3-0.1-2.6-0.3-3.9-0.3c-1.2-0.1-2.4-0.1-3.6-0.1
		c-1.1,0-2.3,0-3.5,0.1c-1.2,0.1-2.5,0.2-3.9,0.3c-2.4-4.3-5-8.7-7.8-13.2c-2.8-4.5-5.8-9.1-9-13.9v11.3c0,2.4,0.1,4.9,0.2,7.5
		c0.1,2.6,0.3,5.4,0.5,8.3c-1.2-0.1-2.4-0.3-3.5-0.3c-1.1-0.1-2.2-0.1-3.3-0.1c-1,0-2.1,0-3.3,0.1C475.3,359.9,474,360,472.6,360.1z
		"/>
	<path class="st1" d="M523.3,360.1c0.4-2.9,0.6-6.3,0.8-10.1c0.2-3.8,0.2-9.9,0.2-18.3v-4.2c0-6.3-0.1-11.2-0.2-14.8
		c-0.2-3.6-0.4-6.7-0.8-9.6c2.6,0.1,5.3,0.2,8,0.2c2.8,0.1,5.6,0.1,8.6,0.1c3,0,5.8,0,8.3-0.1c2.5-0.1,4.9-0.1,7.1-0.2
		c-0.1,0.9-0.2,1.6-0.3,2.2c0,0.5-0.1,1-0.1,1.4c0,0.4,0,0.9,0.1,1.4c0,0.5,0.1,1.2,0.3,2.1c-4.1-0.3-7.7-0.5-10.7-0.7
		c-3-0.2-5.6-0.2-7.8-0.3c-0.1,1-0.2,2.1-0.2,3.2c0,1.1-0.1,2.8-0.1,5v4l0,5.7c1.7-0.1,4.7-0.2,8.9-0.3c4.2-0.2,7.4-0.3,9.5-0.3
		c-0.1,0.8-0.2,1.5-0.3,2c0,0.5-0.1,1-0.1,1.5c0,0.7,0.1,1.9,0.3,3.3c0,0.1,0,0.2,0,0.2c-5-0.3-8.9-0.5-11.5-0.6
		c-2.6-0.1-4.9-0.2-6.9-0.2v10c0,3.6,0,6.1,0.1,7.6c0.1,1.4,0.1,2.6,0.2,3.6c2.5-0.1,5.3-0.2,8.4-0.4c3.1-0.2,6.4-0.5,10.1-0.8
		c-0.1,0.5-0.1,1.1-0.2,1.6c0,0.5-0.1,1.1-0.1,1.7s0,1.3,0.1,2.3c0.1,0.9,0.1,1.5,0.1,1.7c-5.5-0.2-9.8-0.3-12.7-0.3
		c-3-0.1-5.4-0.1-7.2-0.1c-2.5,0-4.7,0-6.6,0.1C526.8,359.9,525,360,523.3,360.1z"/>
	<path class="st1" d="M556.8,373.3l-0.7-3.4h0.5c2.2,0,4-0.3,5.4-0.9c1.4-0.6,2.5-1.5,3.3-2.6c0.7-1.1,1.2-2.9,1.5-5.5
		c0.3-2.6,0.5-7,0.5-13.1c0-7.1-0.1-14.3-0.3-21.8c-0.2-7.5-0.4-15.1-0.7-22.9c1.1,0.1,2.2,0.2,3.3,0.2c1.2,0.1,2.4,0.1,3.7,0.1
		c1.3,0,2.6,0,3.7-0.1c1.2-0.1,2.3-0.1,3.3-0.2c-0.3,4.3-0.5,8.9-0.6,13.8c-0.1,4.9-0.2,10.1-0.2,15.7c0,2.2,0,5.2,0.1,9
		c0.1,3.7,0.1,6.4,0.1,7.9c0,5.2-0.4,9.2-1.3,12c-0.9,2.8-2.4,5.2-4.4,7.1c-1.7,1.5-3.8,2.8-6.3,3.7c-2.5,0.9-5.2,1.3-8.1,1.3
		c-0.3,0-0.7,0-1.2-0.1C558,373.5,557.5,373.4,556.8,373.3z"/>
	<path class="st1" d="M585.8,360.1c4-8.9,8-18.2,11.9-27.9c3.9-9.6,7.7-19.7,11.4-30.2c0.6,0.1,1.2,0.1,1.7,0.2
		c0.5,0,1.1,0.1,1.6,0.1c0.5,0,1,0,1.5-0.1c0.5,0,1-0.1,1.4-0.2c3.4,9.2,7,18.7,10.8,28.4c3.9,9.7,8,19.6,12.4,29.7
		c-1.1-0.1-2.2-0.2-3.4-0.3c-1.2-0.1-2.4-0.1-3.8-0.1c-1.4,0-2.6,0-3.8,0.1c-1.2,0.1-2.3,0.1-3.4,0.3c-0.7-2.1-1.4-4.3-2.1-6.7
		c-0.8-2.4-1.9-5.7-3.4-10.1c-1.1-0.1-2.4-0.1-3.7-0.1c-1.3,0-3.4,0-6,0c-2.7,0-4.7,0-6.1,0c-1.3,0-2.6,0.1-3.7,0.1
		c-1.6,4.7-2.8,8.2-3.6,10.5c-0.8,2.3-1.6,4.4-2.3,6.2c-0.8-0.1-1.5-0.2-2-0.3c-0.6-0.1-1.1-0.1-1.6-0.1c-0.8,0-1.9,0.1-3.5,0.3
		C586.1,360.1,585.9,360.1,585.8,360.1L585.8,360.1z M601.6,337.9c0,0,0.1,0,0.2,0c3.2,0.1,5.6,0.2,7.2,0.2c0.9,0,1.8,0,2.8,0
		c1,0,2.5-0.1,4.6-0.2c-1.1-3.3-2.2-6.6-3.5-9.8c-1.2-3.2-2.5-6.3-3.8-9.4c-1.4,3-2.7,6-4,9.2C604,331.1,602.8,334.4,601.6,337.9z"
		/>
	<path class="st1" d="M394.8,482.6c0.2,0,0.5,0,0.9,0c0.4,0,0.6,0,0.8,0c4,0,6.9-0.9,8.8-2.7c1.9-1.8,2.9-4.6,2.9-8.4
		c0-3-0.9-5.4-2.6-7c-1.7-1.6-4.2-2.4-7.5-2.4c-0.3,0-0.6,0-1,0c-0.3,0-0.9,0.1-1.7,0.2c-0.2,1.4-0.4,3-0.5,4.7
		c-0.1,1.7-0.1,3.6-0.1,5.7V482.6L394.8,482.6z M395.2,509.8c0.7,0.2,1.2,0.3,1.7,0.3c0.4,0.1,0.8,0.1,1.3,0.1c3.4,0,6.1-1,7.9-3
		c1.8-2,2.8-4.9,2.8-8.6c0-3.7-1-6.6-2.9-8.5c-2-2-4.8-2.9-8.5-2.9c-0.6,0-1.1,0-1.5,0c-0.3,0-0.7,0.1-1,0.1v10.8
		c0,1.9,0,3.8,0.1,5.8C395,505.9,395.1,507.9,395.2,509.8L395.2,509.8z M381.8,514.7c0.3-2.4,0.5-5.2,0.7-8.2
		c0.2-3.1,0.2-7.3,0.2-12.8v-7.4c0-8.6-0.1-14.8-0.2-18.5c-0.1-3.8-0.4-7.1-0.7-10c2.4,0.1,4.5,0.1,6.3,0.2c1.8,0,3.2,0.1,4.2,0.1
		c1.2,0,2.8,0,5-0.1c2.2-0.1,3.7-0.1,4.7-0.1c6.1,0,10.7,1.1,13.8,3.3c3.1,2.2,4.6,5.5,4.6,9.8c0,3.9-1.5,7-4.4,9.3
		c-3,2.3-7.1,3.7-12.5,4v0.4c6.2,0,10.8,1.2,13.8,3.5c3,2.3,4.5,5.9,4.5,10.8c0,5-1.7,8.9-5.2,11.7c-3.5,2.8-8.3,4.2-14.5,4.2
		c-1.5,0-3.9-0.1-7.1-0.2c-3.2-0.1-5.7-0.2-7.4-0.2c-1,0-2.7,0.1-5,0.3C382.2,514.7,382,514.7,381.8,514.7z"/>
	<path class="st1" d="M444.9,485h0.3c4.6,0,7.9-1,10-2.9c2.1-2,3.1-5.1,3.1-9.3c0-3.6-0.9-6.2-2.7-7.9s-4.7-2.5-8.6-2.5
		c-0.2,0-0.5,0-0.9,0c-0.4,0-0.7,0-0.9,0c-0.1,1.7-0.2,3.4-0.2,5.1c0,1.7-0.1,3.4-0.1,5V485L444.9,485z M431.8,514.7
		c0.4-3.9,0.6-8,0.8-12.4c0.2-4.4,0.3-9.8,0.3-16c0-5.9-0.1-11.1-0.3-15.8c-0.2-4.6-0.5-8.9-0.8-12.9c0.8,0.1,1.6,0.2,2.3,0.3
		c0.8,0.1,1.5,0.1,2.2,0.1c0.3,0,2.1-0.1,5.4-0.2c3.3-0.1,6.5-0.2,9.5-0.2c6.8,0,11.8,1.2,15.1,3.5c3.3,2.4,5,6,5,10.8
		c0,3.8-1.1,6.9-3.4,9.4c-2.3,2.4-5.6,4.2-10.1,5.3l18.8,28.1c-1.3-0.1-2.6-0.2-3.9-0.3c-1.2-0.1-2.4-0.1-3.6-0.1
		c-1.1,0-2.3,0-3.5,0.1c-1.2,0.1-2.5,0.2-3.9,0.3c-2.4-4.3-5-8.7-7.8-13.2c-2.8-4.5-5.8-9.1-9-13.9v11.3c0,2.4,0.1,4.9,0.2,7.5
		c0.1,2.6,0.3,5.4,0.5,8.3c-1.2-0.1-2.4-0.2-3.5-0.3c-1.1-0.1-2.2-0.1-3.3-0.1c-1,0-2.1,0-3.3,0.1
		C434.5,514.4,433.2,514.5,431.8,514.7z"/>
	<path class="st1" d="M475.2,514.7c4-8.9,8-18.2,11.9-27.9c3.9-9.6,7.7-19.7,11.4-30.2c0.6,0.1,1.2,0.1,1.7,0.2
		c0.5,0,1.1,0.1,1.6,0.1c0.5,0,1,0,1.5-0.1c0.5,0,1-0.1,1.4-0.2c3.4,9.2,7,18.7,10.8,28.4c3.9,9.7,8,19.6,12.4,29.7
		c-1.1-0.1-2.2-0.2-3.4-0.2c-1.2-0.1-2.4-0.1-3.8-0.1c-1.4,0-2.6,0-3.8,0.1c-1.2,0.1-2.3,0.1-3.4,0.2c-0.7-2.1-1.4-4.3-2.1-6.7
		c-0.8-2.3-1.9-5.7-3.4-10.1c-1.1-0.1-2.4-0.1-3.7-0.1c-1.3,0-3.4,0-6,0c-2.7,0-4.7,0-6.1,0c-1.3,0-2.6,0.1-3.7,0.1
		c-1.6,4.7-2.8,8.2-3.6,10.5c-0.8,2.3-1.6,4.4-2.3,6.2c-0.8-0.1-1.5-0.2-2-0.2c-0.6-0.1-1.1-0.1-1.6-0.1c-0.8,0-1.9,0.1-3.5,0.3
		C475.4,514.7,475.3,514.7,475.2,514.7L475.2,514.7z M490.9,492.4c0,0,0.1,0,0.2,0c3.2,0.1,5.6,0.2,7.2,0.2c0.9,0,1.8,0,2.8,0
		c1,0,2.5-0.1,4.6-0.2c-1.1-3.3-2.2-6.6-3.5-9.8c-1.2-3.2-2.5-6.3-3.8-9.4c-1.4,3-2.7,6-4,9.2C493.3,485.7,492.1,489,490.9,492.4z"
		/>
	<path class="st1" d="M530.2,511.8c0.5-1.7,1-3.5,1.4-5.4c0.5-1.9,0.9-3.9,1.3-6.1h1.1c0.7,3.2,2.2,5.7,4.3,7.5
		c2.1,1.8,4.8,2.7,7.9,2.7c2.8,0,5.1-0.8,6.8-2.3c1.7-1.5,2.5-3.6,2.5-6.1c0-1.9-0.5-3.4-1.6-4.8c-1.1-1.3-3.7-3.1-8-5.4
		c-6.5-3.5-10.7-6.4-12.6-8.9c-1.9-2.5-2.9-5.6-2.9-9.4c0-5.1,1.8-9.2,5.4-12.3c3.6-3.1,8.3-4.7,14.2-4.7c2.6,0,5,0.3,7.2,1
		c2.2,0.6,4.3,1.6,6.2,2.9c-0.6,1.6-1.1,3.2-1.5,4.8c-0.5,1.5-0.9,3-1.2,4.4h-0.9c-0.8-2.5-2.3-4.4-4.3-5.9c-2-1.4-4.3-2.1-7-2.1
		c-2.4,0-4.4,0.7-5.9,2c-1.5,1.3-2.2,3.1-2.2,5.3c0,1.8,0.6,3.4,1.7,4.7c1.1,1.3,3.6,3,7.4,4.9c0.8,0.5,2.1,1.1,3.7,1.8
		c4.5,2.2,7.3,3.9,8.5,5.2c1.5,1.5,2.6,3.2,3.3,5.1c0.7,1.9,1.1,3.9,1.1,6.2c0,5.6-1.9,10.2-5.7,13.6c-3.8,3.4-8.9,5.1-15.3,5.1
		c-3.3,0-6.2-0.3-8.7-1C533.9,514.1,531.9,513.1,530.2,511.8z"/>
	<path class="st1" d="M575.5,514.7c0.3-3.7,0.5-7.6,0.7-11.9c0.2-4.2,0.2-9.8,0.2-16.6c0-6.6-0.1-12.1-0.2-16.6
		c-0.2-4.5-0.4-8.5-0.7-12c1.2,0.2,2.4,0.3,3.6,0.4c1.2,0.1,2.4,0.1,3.6,0.1c1.2,0,2.4,0,3.6-0.1c1.2-0.1,2.4-0.2,3.5-0.4
		c-0.3,3.6-0.6,7.6-0.7,12.1c-0.2,4.5-0.2,10-0.2,16.5c0,7.1,0.1,12.7,0.2,16.9c0.1,4.2,0.4,8,0.7,11.5c-1.3-0.1-2.6-0.2-3.8-0.3
		c-1.2-0.1-2.3-0.1-3.4-0.1c-1.1,0-2.3,0-3.4,0.1C578.1,514.4,576.8,514.5,575.5,514.7z"/>
	<path class="st1" d="M602.4,514.7c0.3-3.8,0.6-8,0.8-12.4c0.2-4.5,0.3-9.8,0.3-16c0-6-0.1-11.3-0.3-15.9c-0.2-4.6-0.4-8.9-0.8-12.6
		c1.2,0.2,2.3,0.3,3.5,0.4c1.2,0.1,2.3,0.1,3.5,0.1c1.2,0,2.3,0,3.5-0.1c1.2-0.1,2.3-0.2,3.5-0.4c-0.3,3.9-0.6,8.1-0.8,12.8
		c-0.2,4.6-0.2,9.9-0.2,15.8c0,5.8,0,10.4,0.1,13.7c0.1,3.4,0.2,6.3,0.4,8.8c3.4-0.1,6.7-0.2,9.8-0.4c3.1-0.2,6.2-0.4,9.2-0.8
		c-0.1,0.5-0.1,1.1-0.2,1.7c0,0.6-0.1,1.2-0.1,1.8c0,0.6,0,1.2,0.1,1.7c0,0.6,0.1,1.2,0.2,1.8c-3.9-0.2-7.2-0.4-9.9-0.5
		c-2.7-0.1-5.2-0.1-7.4-0.1c-2,0-4.2,0-6.6,0.1C608.7,514.3,605.8,514.5,602.4,514.7z"/>
	<path class="st1" d="M297.5,511.1c0.7,0.1,1.4,0.2,2.1,0.3c0.7,0.1,1.3,0.1,1.9,0.1c5.1,0,9-1.4,11.6-4.3c2.6-2.9,3.9-7.2,3.9-12.9
		c0-5.8-1.2-9.9-3.6-12.5c-2.4-2.6-6.3-3.8-11.8-3.8c-0.4,0-1.2,0-2.4,0.1c-0.7,0-1.2,0-1.6,0.1c-0.1,2.6-0.1,5.4-0.2,8.4
		c0,3-0.1,6.4-0.1,10.1c0,3.9,0,6.9,0,8.9C297.4,507.5,297.4,509.4,297.5,511.1L297.5,511.1z M288,514.7c0.2-1.7,0.4-3.6,0.5-5.8
		c0.1-2.2,0.2-5.2,0.2-9v-5.2v-3.2c0-4.4,0-7.8-0.2-10.3c-0.1-2.5-0.3-4.7-0.5-6.7c0.7,0.1,1.5,0.1,2.2,0.2c0.7,0,1.5,0.1,2.3,0.1
		c1.2,0,3.2,0,5.9-0.1c2.7-0.1,4.7-0.1,6.1-0.1c3.9,0,7,0.3,9.3,0.9c2.3,0.6,4.3,1.5,6,2.8c2.1,1.7,3.7,3.8,4.9,6.5
		c1.1,2.7,1.7,5.7,1.7,9c0,7-2,12.3-6.1,15.8c-4.1,3.5-10.1,5.3-18.2,5.3c-1.4,0-3.3,0-5.5-0.1c-2.2-0.1-3.7-0.1-4.5-0.1
		c-0.8,0-1.8,0-3.2,0.1C288.6,514.7,288.2,514.7,288,514.7z"/>
	<path class="st1" d="M340.5,494.6c0,5.5,1.1,9.8,3.4,12.9c2.3,3.1,5.4,4.6,9.4,4.6c4,0,7.1-1.6,9.3-4.7c2.3-3.1,3.4-7.4,3.4-12.8
		c0-5.5-1.1-9.8-3.4-13c-2.3-3.1-5.4-4.7-9.3-4.7c-4,0-7.1,1.6-9.4,4.7C341.7,484.8,340.5,489.1,340.5,494.6L340.5,494.6z
		 M331.1,495.2c0-6.7,2-12,6.1-15.8c4-3.8,9.7-5.7,16.8-5.7c6.9,0,12.2,1.8,16,5.4c3.8,3.6,5.6,8.8,5.6,15.5c0,6.3-2,11.4-6.1,15.2
		c-4,3.8-9.4,5.7-16.2,5.7c-7.2,0-12.7-1.8-16.5-5.3C333,506.7,331.1,501.7,331.1,495.2z"/>
	<path class="st1" d="M67.4,410.4c5.1,0,8.7-1.1,11-3.3c2.2-2.2,3.4-5.8,3.4-10.9c0-4.1-0.9-7.2-2.7-9.3c-1.8-2-4.5-3.1-8.1-3.1
		c-0.6,0-1.5,0-2.7,0.1c-0.1,0-0.2,0-0.3,0c-0.2,1.8-0.3,3.5-0.4,5.3c-0.1,1.8-0.1,3.5-0.1,5.3V410.4L67.4,410.4z M52.6,443.8
		c0.4-4.3,0.7-9,0.9-14c0.2-5.1,0.3-11.2,0.3-18.5c0-6.7-0.1-12.7-0.3-18c-0.2-5.3-0.5-10.2-0.9-14.6c1.1,0.1,2.3,0.2,3.4,0.3
		c1.1,0.1,2.2,0.1,3.3,0.1c1.3,0,3.7-0.1,7.2-0.2c3.5-0.1,6.4-0.2,8.6-0.2c7.5,0,13,1.4,16.5,4.1c3.5,2.8,5.2,7.1,5.2,13
		c0,6.7-2.2,11.7-6.5,15c-4.3,3.3-10.9,4.9-19.7,4.9c-0.4,0-0.9,0-1.6,0c-0.7,0-1.2,0-1.6,0v14c0,0.8,0.1,2.2,0.2,4.3
		c0.2,2.1,0.4,5.4,0.8,9.9c-1.5-0.2-2.9-0.3-4.2-0.4c-1.3-0.1-2.6-0.1-3.8-0.1c-1.2,0-2.5,0-3.7,0.1C55.4,443.5,54,443.6,52.6,443.8
		z"/>
	<path class="st1" d="M120.8,409.8h0.4c5.2,0,9-1.1,11.4-3.4c2.4-2.2,3.6-5.8,3.6-10.7c0-4.1-1-7.1-3.1-9c-2.1-1.9-5.4-2.8-9.9-2.8
		c-0.2,0-0.6,0-1,0c-0.4,0-0.8,0-1,0c-0.1,2-0.2,3.9-0.3,5.9c0,1.9-0.1,3.8-0.1,5.7V409.8L120.8,409.8z M105.9,443.8
		c0.4-4.4,0.7-9.1,0.9-14.2c0.2-5.1,0.3-11.2,0.3-18.3c0-6.7-0.1-12.7-0.3-18c-0.2-5.3-0.5-10.2-0.9-14.7c0.9,0.1,1.8,0.2,2.7,0.3
		c0.9,0.1,1.7,0.1,2.5,0.1c0.3,0,2.4-0.1,6.2-0.2c3.8-0.1,7.4-0.2,10.8-0.2c7.7,0,13.5,1.4,17.3,4.1c3.8,2.7,5.7,6.8,5.7,12.3
		c0,4.4-1.3,7.9-3.9,10.7c-2.6,2.8-6.5,4.8-11.6,6l21.5,32.1c-1.5-0.2-3-0.3-4.4-0.4c-1.4-0.1-2.8-0.1-4.1-0.1c-1.3,0-2.6,0-4,0.1
		c-1.4,0.1-2.9,0.2-4.5,0.4c-2.8-4.9-5.7-10-8.9-15.1c-3.2-5.2-6.6-10.4-10.2-15.9v12.9c0,2.8,0.1,5.6,0.2,8.6
		c0.1,3,0.3,6.1,0.6,9.5c-1.4-0.2-2.7-0.3-4-0.4c-1.3-0.1-2.5-0.1-3.7-0.1c-1.2,0-2.4,0-3.7,0.1
		C108.9,443.5,107.5,443.6,105.9,443.8z"/>
	<path class="st1" d="M163.8,443.8c0.4-3.4,0.7-7.2,0.9-11.5c0.2-4.3,0.3-11.3,0.3-21v-4.8c0-7.2-0.1-12.8-0.3-16.9
		c-0.2-4.1-0.5-7.7-0.9-10.9c3,0.1,6,0.2,9.2,0.3c3.1,0.1,6.4,0.1,9.9,0.1c3.5,0,6.6,0,9.4-0.1c2.9-0.1,5.5-0.2,8.1-0.3
		c-0.2,1-0.3,1.9-0.3,2.5c0,0.6-0.1,1.1-0.1,1.6c0,0.5,0,1,0.1,1.6c0,0.5,0.1,1.4,0.3,2.4c-4.7-0.3-8.7-0.6-12.2-0.7
		c-3.4-0.2-6.4-0.3-9-0.3c-0.1,1.1-0.2,2.4-0.3,3.7c0,1.3-0.1,3.2-0.1,5.8v4.6l0,6.5c2-0.1,5.4-0.2,10.2-0.4
		c4.8-0.2,8.4-0.3,10.9-0.4c-0.2,1-0.3,1.7-0.3,2.3c0,0.6-0.1,1.1-0.1,1.7c0,0.8,0.1,2.1,0.3,3.8c0,0.1,0,0.2,0,0.3
		c-5.8-0.3-10.1-0.6-13.2-0.7c-3-0.1-5.6-0.2-7.9-0.2v11.4c0,4.1,0,7,0.1,8.6c0.1,1.6,0.1,3,0.3,4.2c2.9-0.1,6.1-0.3,9.6-0.5
		c3.5-0.2,7.3-0.5,11.5-0.9c-0.1,0.6-0.2,1.2-0.2,1.8c0,0.6-0.1,1.2-0.1,1.9c0,0.7,0,1.5,0.1,2.6c0.1,1.1,0.1,1.7,0.1,2
		c-6.3-0.2-11.2-0.3-14.6-0.4c-3.4-0.1-6.1-0.1-8.2-0.1c-2.8,0-5.4,0-7.6,0.1C167.8,443.5,165.7,443.6,163.8,443.8z"/>
	<path class="st1" d="M208.3,440.5c0.6-2,1.1-4,1.6-6.2c0.5-2.2,1-4.5,1.5-6.9h1.3c0.8,3.7,2.5,6.6,4.9,8.6c2.4,2,5.5,3.1,9,3.1
		c3.2,0,5.8-0.9,7.8-2.6c1.9-1.8,2.9-4.1,2.9-7c0-2.1-0.6-3.9-1.9-5.5c-1.3-1.5-4.3-3.6-9.1-6.2c-7.4-3.9-12.2-7.4-14.4-10.2
		c-2.2-2.9-3.3-6.4-3.3-10.7c0-5.8,2.1-10.5,6.2-14.1c4.1-3.6,9.5-5.4,16.2-5.4c3,0,5.7,0.4,8.2,1.1c2.5,0.7,4.9,1.8,7.1,3.4
		c-0.7,1.9-1.2,3.7-1.8,5.4c-0.5,1.8-1,3.5-1.4,5.1h-1c-1-2.8-2.6-5.1-4.9-6.7c-2.3-1.6-4.9-2.4-7.9-2.4c-2.8,0-5.1,0.8-6.8,2.3
		c-1.7,1.5-2.6,3.6-2.6,6.1c0,2.1,0.6,3.9,1.9,5.4c1.3,1.5,4.1,3.4,8.5,5.6c1,0.5,2.4,1.2,4.2,2.1c5.1,2.5,8.3,4.5,9.7,5.9
		c1.7,1.8,3,3.7,3.8,5.8c0.8,2.1,1.2,4.5,1.2,7.1c0,6.5-2.2,11.7-6.5,15.6c-4.4,3.9-10.2,5.9-17.4,5.9c-3.8,0-7.1-0.4-9.9-1.1
		C212.6,443.2,210.2,442,208.3,440.5z"/>
	<path class="st1" d="M274.7,407.2c0.2,0,0.5,0,1,0c0.4,0,0.7,0,0.9,0c4.5,0,7.9-1,10.1-3.1c2.2-2.1,3.3-5.3,3.3-9.6
		c0-3.5-1-6.1-3-7.9c-2-1.8-4.8-2.7-8.6-2.7c-0.3,0-0.7,0-1.1,0c-0.4,0-1,0.1-1.9,0.2c-0.3,1.6-0.4,3.4-0.5,5.3
		c-0.1,2-0.2,4.1-0.2,6.5V407.2L274.7,407.2z M275.2,438.3c0.8,0.2,1.4,0.3,1.9,0.4c0.5,0.1,1,0.1,1.4,0.1c3.9,0,6.9-1.1,9-3.5
		c2.1-2.3,3.2-5.6,3.2-9.9c0-4.3-1.1-7.5-3.4-9.7c-2.2-2.2-5.5-3.4-9.7-3.4c-0.7,0-1.3,0-1.7,0c-0.4,0-0.8,0.1-1.2,0.1v12.4
		c0,2.2,0,4.4,0.1,6.7C275,433.7,275.1,436,275.2,438.3L275.2,438.3z M260,443.8c0.3-2.8,0.6-5.9,0.8-9.4c0.2-3.5,0.3-8.4,0.3-14.6
		v-8.5c0-9.8-0.1-16.9-0.2-21.2c-0.2-4.3-0.4-8.1-0.8-11.5c2.8,0.1,5.2,0.2,7.2,0.2c2,0,3.6,0.1,4.8,0.1c1.3,0,3.2,0,5.7-0.1
		c2.5-0.1,4.2-0.1,5.3-0.1c7,0,12.2,1.3,15.7,3.8c3.5,2.5,5.3,6.2,5.3,11.2c0,4.4-1.7,8-5.1,10.6c-3.4,2.7-8.1,4.2-14.3,4.6v0.5
		c7.1,0,12.4,1.3,15.8,4c3.5,2.7,5.2,6.8,5.2,12.3c0,5.7-2,10.2-5.9,13.4c-4,3.2-9.5,4.8-16.6,4.8c-1.7,0-4.5-0.1-8.2-0.2
		c-3.7-0.1-6.5-0.2-8.4-0.2c-1.1,0-3.1,0.1-5.8,0.3C260.4,443.8,260.1,443.8,260,443.8z"/>
	<path class="st1" d="M317.3,443.8c0.4-4.2,0.6-8.7,0.8-13.5c0.2-4.8,0.3-11.2,0.3-19c0-7.5-0.1-13.9-0.3-19
		c-0.2-5.1-0.4-9.7-0.8-13.7c1.4,0.2,2.8,0.3,4.1,0.4c1.4,0.1,2.8,0.2,4.2,0.2c1.4,0,2.8,0,4.2-0.2c1.4-0.1,2.7-0.2,4.1-0.4
		c-0.4,4.1-0.6,8.7-0.8,13.8c-0.2,5.1-0.3,11.4-0.3,18.9c0,8.1,0.1,14.6,0.3,19.4c0.2,4.8,0.4,9.2,0.7,13.1c-1.5-0.2-3-0.3-4.3-0.4
		c-1.4-0.1-2.6-0.1-3.8-0.1c-1.3,0-2.6,0-3.9,0.1C320.3,443.5,318.9,443.6,317.3,443.8z"/>
	<path class="st1" d="M360.4,443.8c0.4-4.8,0.7-9.8,0.9-15.1c0.2-5.3,0.3-11.1,0.3-17.4c0-2.1,0-5.5-0.1-10
		c-0.1-4.5-0.2-9.7-0.3-15.3h-2c-2.9,0-5.7,0.1-8.4,0.3c-2.7,0.2-5.2,0.5-7.6,0.9c0-0.3,0.1-1,0.2-2c0.1-1,0.1-1.8,0.1-2.4
		c0-0.6-0.1-1.5-0.2-2.7c0-0.5-0.1-0.9-0.1-1.2c5.2,0.2,9.8,0.4,13.8,0.5c4.1,0.1,7.9,0.2,11.5,0.2c3.6,0,7.5,0,11.6-0.2
		c4.1-0.1,8.7-0.3,13.8-0.5c-0.1,0.6-0.1,1.2-0.2,1.9c-0.1,0.7-0.1,1.4-0.1,2c0,0.7,0,1.4,0.1,2.1c0,0.7,0.1,1.5,0.2,2.4
		c-2.5-0.4-5.1-0.7-7.7-0.9c-2.7-0.2-5.5-0.3-8.4-0.3h-1.9c-0.2,2.4-0.3,5-0.3,7.9c-0.1,2.8-0.1,7-0.1,12.6c0,9.9,0.1,17.5,0.3,23
		c0.2,5.4,0.4,10.2,0.8,14.4c-1.5-0.2-3-0.3-4.3-0.4c-1.4-0.1-2.6-0.1-3.8-0.1c-1.2,0-2.5,0-3.8,0.1
		C363.2,443.5,361.9,443.6,360.4,443.8z"/>
	<path class="st1" d="M403,443.8c0.4-3.4,0.7-7.2,0.9-11.5c0.2-4.3,0.3-11.3,0.3-21v-4.8c0-7.2-0.1-12.8-0.3-16.9
		c-0.2-4.1-0.5-7.7-0.9-10.9c3,0.1,6,0.2,9.2,0.3c3.1,0.1,6.4,0.1,9.9,0.1c3.5,0,6.6,0,9.4-0.1c2.9-0.1,5.5-0.2,8.1-0.3
		c-0.2,1-0.3,1.9-0.3,2.5c0,0.6-0.1,1.1-0.1,1.6c0,0.5,0,1,0.1,1.6c0,0.5,0.1,1.4,0.3,2.4c-4.7-0.3-8.7-0.6-12.2-0.7
		c-3.4-0.2-6.4-0.3-9-0.3c-0.1,1.1-0.2,2.4-0.3,3.7c0,1.3-0.1,3.2-0.1,5.8v4.6l0,6.5c2-0.1,5.4-0.2,10.2-0.4
		c4.8-0.2,8.4-0.3,10.9-0.4c-0.2,1-0.3,1.7-0.3,2.3c0,0.6-0.1,1.1-0.1,1.7c0,0.8,0.1,2.1,0.3,3.8c0,0.1,0,0.2,0,0.3
		c-5.8-0.3-10.1-0.6-13.2-0.7c-3-0.1-5.6-0.2-7.9-0.2v11.4c0,4.1,0,7,0.1,8.6c0.1,1.6,0.1,3,0.3,4.2c2.9-0.1,6.1-0.3,9.6-0.5
		c3.5-0.2,7.3-0.5,11.5-0.9c-0.1,0.6-0.2,1.2-0.2,1.8c0,0.6-0.1,1.2-0.1,1.9c0,0.7,0,1.5,0.1,2.6c0.1,1.1,0.1,1.7,0.1,2
		c-6.3-0.2-11.2-0.3-14.6-0.4c-3.4-0.1-6.1-0.1-8.2-0.1c-2.8,0-5.4,0-7.6,0.1C407,443.5,404.9,443.6,403,443.8z"/>
	<path class="st1" d="M465.8,409.8h0.4c5.2,0,9-1.1,11.4-3.4c2.4-2.2,3.6-5.8,3.6-10.7c0-4.1-1-7.1-3.1-9c-2.1-1.9-5.4-2.8-9.9-2.8
		c-0.2,0-0.6,0-1,0c-0.4,0-0.8,0-1,0c-0.1,2-0.2,3.9-0.3,5.9c0,1.9-0.1,3.8-0.1,5.7V409.8L465.8,409.8z M450.9,443.8
		c0.4-4.4,0.7-9.1,0.9-14.2c0.2-5.1,0.3-11.2,0.3-18.3c0-6.7-0.1-12.7-0.3-18c-0.2-5.3-0.5-10.2-0.9-14.7c0.9,0.1,1.8,0.2,2.7,0.3
		c0.9,0.1,1.7,0.1,2.5,0.1c0.3,0,2.4-0.1,6.2-0.2c3.8-0.1,7.4-0.2,10.8-0.2c7.7,0,13.5,1.4,17.3,4.1c3.8,2.7,5.7,6.8,5.7,12.3
		c0,4.4-1.3,7.9-3.9,10.7c-2.6,2.8-6.5,4.8-11.6,6l21.5,32.1c-1.5-0.2-3-0.3-4.4-0.4c-1.4-0.1-2.8-0.1-4.1-0.1c-1.3,0-2.6,0-4,0.1
		c-1.4,0.1-2.9,0.2-4.5,0.4c-2.8-4.9-5.7-10-8.9-15.1c-3.2-5.2-6.6-10.4-10.2-15.9v12.9c0,2.8,0.1,5.6,0.2,8.6
		c0.1,3,0.3,6.1,0.6,9.5c-1.4-0.2-2.7-0.3-4-0.4c-1.3-0.1-2.5-0.1-3.7-0.1c-1.2,0-2.4,0-3.7,0.1
		C453.9,443.5,452.5,443.6,450.9,443.8z"/>
	<path class="st1" d="M508.9,443.8c0.3-4.2,0.6-8.7,0.8-13.5c0.2-4.8,0.3-11.2,0.3-19c0-7.5-0.1-13.9-0.3-19
		c-0.2-5.1-0.4-9.7-0.8-13.7c1.4,0.2,2.8,0.3,4.1,0.4c1.4,0.1,2.8,0.2,4.2,0.2c1.4,0,2.8,0,4.2-0.2c1.4-0.1,2.7-0.2,4.1-0.4
		c-0.4,4.1-0.6,8.7-0.8,13.8c-0.2,5.1-0.3,11.4-0.3,18.9c0,8.1,0.1,14.6,0.3,19.4c0.2,4.8,0.4,9.2,0.7,13.1c-1.5-0.2-3-0.3-4.3-0.4
		c-1.4-0.1-2.6-0.1-3.8-0.1c-1.3,0-2.6,0-3.9,0.1C511.9,443.5,510.5,443.6,508.9,443.8z"/>
	<path class="st1" d="M531.2,443.8c4.6-10.2,9.1-20.8,13.6-31.8c4.4-11,8.8-22.5,13.1-34.5c0.7,0.1,1.3,0.2,2,0.2
		c0.6,0,1.2,0.1,1.9,0.1c0.6,0,1.2,0,1.7-0.1c0.6,0,1.1-0.1,1.7-0.2c3.8,10.6,8,21.4,12.4,32.4c4.4,11,9.1,22.4,14.2,34
		c-1.2-0.1-2.5-0.2-3.8-0.3c-1.4-0.1-2.8-0.1-4.4-0.1c-1.5,0-3,0-4.3,0.1c-1.3,0.1-2.6,0.2-3.9,0.3c-0.7-2.4-1.6-4.9-2.4-7.6
		c-0.9-2.7-2.2-6.5-3.8-11.6c-1.3-0.1-2.7-0.1-4.3-0.1c-1.5,0-3.8,0-6.9,0c-3.1,0-5.4,0-6.9,0c-1.5,0-3,0.1-4.3,0.1
		c-1.8,5.4-3.2,9.4-4.2,12.1c-0.9,2.6-1.8,5-2.6,7.1c-0.9-0.1-1.7-0.2-2.3-0.3c-0.6-0.1-1.2-0.1-1.8-0.1c-0.9,0-2.2,0.1-4,0.3
		C531.5,443.8,531.4,443.8,531.2,443.8L531.2,443.8z M549.2,418.3c0,0,0.1,0,0.3,0c3.6,0.1,6.4,0.2,8.3,0.2c1,0,2.1,0,3.2,0
		c1.1,0,2.9-0.1,5.3-0.2c-1.2-3.8-2.6-7.5-3.9-11.2c-1.4-3.6-2.8-7.2-4.4-10.7c-1.6,3.4-3.1,6.9-4.5,10.5
		C552,410.7,550.6,414.4,549.2,418.3z"/>
	<path class="st1" d="M596.8,443.8c0.3-4.6,0.6-9.5,0.8-14.8c0.2-5.3,0.3-11,0.3-17.2c0-5.8-0.1-11.5-0.3-17.1
		c-0.2-5.6-0.5-10.9-0.8-16.1c0.8,0.1,1.6,0.1,2.4,0.2c0.8,0,1.8,0.1,2.8,0.1c1,0,1.9,0,2.7-0.1c0.8,0,1.7-0.1,2.4-0.2
		c6.5,7.3,13.1,14.5,19.7,21.8c6.6,7.3,13.3,14.6,20.1,21.9v-11.2c0-2.1,0-6.1-0.1-12.1c-0.1-6-0.2-12.8-0.3-20.4
		c0.6,0.1,1.2,0.1,1.9,0.2c0.7,0,1.3,0.1,2.1,0.1c0.8,0,1.5,0,2.2-0.1c0.7-0.1,1.3-0.1,1.9-0.2c-0.3,2.7-0.5,6.9-0.6,12.5
		c-0.1,5.6-0.2,14.7-0.2,27.2v5.3c0,5.1,0.1,9.2,0.2,12.1c0.1,3,0.3,5.7,0.6,8c-0.7-0.2-1.4-0.3-2.1-0.4c-0.7-0.1-1.3-0.1-2-0.1
		c-0.6,0-1.3,0-2,0.1c-0.7,0.1-1.4,0.2-2.2,0.4c-5.9-6.8-12.3-13.9-19-21.3s-14.3-15.6-22.5-24.4v27.9c0,1.1,0,3.4,0.1,6.6
		c0.1,3.3,0.2,7,0.3,11.2c-0.8-0.2-1.5-0.3-2.2-0.4c-0.7-0.1-1.3-0.1-1.9-0.1c-0.6,0-1.2,0-1.9,0.1
		C598.3,443.5,597.5,443.6,596.8,443.8z"/>
	<path class="st1" d="M659.8,443.8c4.6-10.2,9.1-20.8,13.6-31.8c4.4-11,8.8-22.5,13.1-34.5c0.7,0.1,1.3,0.2,2,0.2
		c0.6,0,1.2,0.1,1.9,0.1c0.6,0,1.2,0,1.8-0.1c0.6,0,1.1-0.1,1.7-0.2c3.8,10.6,8,21.4,12.4,32.4c4.4,11,9.1,22.4,14.2,34
		c-1.2-0.1-2.5-0.2-3.8-0.3c-1.4-0.1-2.8-0.1-4.4-0.1c-1.5,0-3,0-4.3,0.1c-1.3,0.1-2.6,0.2-3.9,0.3c-0.7-2.4-1.6-4.9-2.4-7.6
		c-0.9-2.7-2.2-6.5-3.8-11.6c-1.3-0.1-2.7-0.1-4.3-0.1c-1.5,0-3.8,0-6.9,0c-3.1,0-5.4,0-6.9,0c-1.5,0-3,0.1-4.3,0.1
		c-1.8,5.4-3.2,9.4-4.2,12.1c-0.9,2.6-1.8,5-2.6,7.1c-0.9-0.1-1.7-0.2-2.3-0.3c-0.6-0.1-1.2-0.1-1.8-0.1c-0.9,0-2.2,0.1-4,0.3
		C660.1,443.8,660,443.8,659.8,443.8L659.8,443.8z M677.8,418.3c0,0,0.1,0,0.3,0c3.6,0.1,6.4,0.2,8.3,0.2c1,0,2.1,0,3.2,0
		c1.1,0,2.9-0.1,5.3-0.2c-1.2-3.8-2.6-7.5-3.9-11.2c-1.4-3.6-2.8-7.2-4.4-10.7c-1.6,3.4-3.1,6.9-4.5,10.5
		C680.6,410.7,679.2,414.4,677.8,418.3z"/>
</g>
</svg>
