<svg width="795" height="511" viewBox="0 0 795 511" fill="none" xmlns="http://www.w3.org/2000/svg">
<path d="M423.679 319.79V315.868H426.787C427.527 315.868 428.169 315.77 428.711 315.572C429.303 315.326 429.747 314.857 430.043 314.166C430.389 313.476 430.561 312.44 430.561 311.058V275.686C430.561 274.256 430.389 273.22 430.043 272.578C429.747 271.888 429.303 271.444 428.711 271.246C428.169 271 427.527 270.876 426.787 270.876H423.679V266.954H449.209V270.876H446.101C445.411 270.876 444.769 271 444.177 271.246C443.585 271.444 443.117 271.888 442.771 272.578C442.475 273.22 442.327 274.256 442.327 275.686V311.058C442.327 312.44 442.475 313.476 442.771 314.166C443.117 314.857 443.585 315.326 444.177 315.572C444.769 315.77 445.411 315.868 446.101 315.868H449.209V319.79H423.679ZM482.611 320.53C476.493 320.53 471.412 319.396 467.367 317.126C463.371 314.857 460.361 311.7 458.339 307.654C456.365 303.56 455.379 298.774 455.379 293.298C455.379 287.97 456.415 283.284 458.487 279.238C460.559 275.144 463.642 271.962 467.737 269.692C471.881 267.374 476.962 266.214 482.981 266.214C487.075 266.214 490.479 266.609 493.193 267.398C495.955 268.138 498.027 269.15 499.409 270.432C500.79 271.715 501.481 273.17 501.481 274.798C501.481 276.525 500.667 278.005 499.039 279.238C497.411 280.472 495.043 281.088 491.935 281.088C491.935 279.066 491.589 277.314 490.899 275.834C490.257 274.305 489.271 273.121 487.939 272.282C486.607 271.394 484.88 270.95 482.759 270.95C479.157 270.95 476.247 271.838 474.027 273.614C471.856 275.341 470.277 277.857 469.291 281.162C468.304 284.468 467.811 288.513 467.811 293.298C467.811 298.034 468.329 302.055 469.365 305.36C470.401 308.666 472.078 311.182 474.397 312.908C476.765 314.635 479.873 315.498 483.721 315.498C484.658 315.498 485.571 315.474 486.459 315.424C487.396 315.326 488.284 315.178 489.123 314.98V304.102C489.123 302.77 488.925 301.734 488.531 300.994C488.136 300.205 487.544 299.662 486.755 299.366C486.015 299.021 485.053 298.848 483.869 298.848H482.907V294.926H506.143V298.848H505.181C504.194 298.848 503.355 299.021 502.665 299.366C502.023 299.712 501.555 300.279 501.259 301.068C500.963 301.858 500.815 302.968 500.815 304.398V316.534C497.953 317.866 495.043 318.878 492.083 319.568C489.123 320.21 485.965 320.53 482.611 320.53ZM510.254 319.79V315.868H513.362C514.052 315.868 514.669 315.77 515.212 315.572C515.804 315.375 516.272 314.956 516.618 314.314C516.963 313.673 517.136 312.711 517.136 311.428V275.39C517.136 274.058 516.963 273.072 516.618 272.43C516.272 271.789 515.804 271.37 515.212 271.172C514.669 270.975 514.052 270.876 513.362 270.876H510.254V266.954H534.082C538.768 266.954 542.592 267.472 545.552 268.508C548.561 269.544 550.781 271.098 552.212 273.17C553.642 275.193 554.358 277.684 554.358 280.644C554.358 283.259 553.864 285.479 552.878 287.304C551.891 289.13 550.633 290.634 549.104 291.818C547.574 293.002 545.971 293.94 544.294 294.63L553.1 309.8C553.741 310.886 554.358 311.823 554.95 312.612C555.542 313.352 556.109 313.969 556.652 314.462C557.244 314.956 557.86 315.326 558.502 315.572C559.143 315.77 559.809 315.868 560.5 315.868H560.796V319.79H558.354C556.134 319.79 554.185 319.716 552.508 319.568C550.88 319.371 549.449 319.05 548.216 318.606C547.032 318.113 545.971 317.422 545.034 316.534C544.096 315.646 543.258 314.512 542.518 313.13L533.712 296.85H528.828V311.428C528.828 312.711 529 313.673 529.346 314.314C529.691 314.956 530.16 315.375 530.752 315.572C531.344 315.77 531.96 315.868 532.602 315.868H535.784V319.79H510.254ZM532.972 292.558C535.241 292.558 537.017 292.164 538.3 291.374C539.632 290.536 540.569 289.327 541.112 287.748C541.654 286.12 541.926 284.098 541.926 281.68C541.926 279.164 541.63 277.166 541.038 275.686C540.446 274.157 539.484 273.047 538.152 272.356C536.82 271.666 535.044 271.32 532.824 271.32H528.828V292.558H532.972ZM562.574 319.79V315.868H565.682C566.373 315.868 566.989 315.77 567.532 315.572C568.124 315.375 568.593 314.956 568.938 314.314C569.283 313.673 569.456 312.711 569.456 311.428V275.686C569.456 274.256 569.283 273.22 568.938 272.578C568.642 271.888 568.198 271.444 567.606 271.246C567.063 271 566.422 270.876 565.682 270.876H562.574V266.954H603.644L603.94 280.57H598.76L598.39 277.092C598.291 275.859 598.045 274.848 597.65 274.058C597.305 273.22 596.811 272.578 596.17 272.134C595.529 271.69 594.69 271.468 593.654 271.468H581.222V289.968H598.76V294.408H581.222V315.276H596.022C597.009 315.276 597.823 315.03 598.464 314.536C599.105 314.043 599.599 313.377 599.944 312.538C600.339 311.7 600.61 310.738 600.758 309.652L601.35 306.174H606.456L605.938 319.79H562.574ZM607.294 337.55V333.258H608.626C610.204 333.258 611.709 332.839 613.14 332C614.57 331.162 615.73 329.78 616.618 327.856C617.506 325.932 617.95 323.318 617.95 320.012V275.39C617.95 274.058 617.777 273.072 617.432 272.43C617.086 271.789 616.618 271.37 616.026 271.172C615.483 270.975 614.866 270.876 614.176 270.876H611.068V266.954H636.598V270.876H633.49C632.799 270.876 632.158 271 631.566 271.246C630.974 271.444 630.505 271.888 630.16 272.578C629.814 273.22 629.642 274.256 629.642 275.686V319.938C629.642 323.293 629.099 326.105 628.014 328.374C626.928 330.644 625.448 332.444 623.574 333.776C621.748 335.108 619.652 336.07 617.284 336.662C614.916 337.254 612.474 337.55 609.958 337.55H607.294ZM638.556 319.79V315.868H639.444C640.332 315.868 641.121 315.72 641.812 315.424C642.502 315.128 643.119 314.61 643.662 313.87C644.254 313.081 644.821 311.946 645.364 310.466L661.422 266.954H671.56L687.026 310.54C687.519 311.922 688.037 313.007 688.58 313.796C689.172 314.536 689.788 315.079 690.43 315.424C691.12 315.72 691.86 315.868 692.65 315.868H693.982V319.79H669.562V315.868H672.448C673.188 315.868 673.903 315.646 674.594 315.202C675.284 314.758 675.63 314.018 675.63 312.982C675.63 312.588 675.58 312.193 675.482 311.798C675.432 311.404 675.358 311.034 675.26 310.688C675.161 310.343 675.062 310.047 674.964 309.8L672.374 302.4H654.392L652.246 308.764C652.147 309.159 652.024 309.603 651.876 310.096C651.728 310.59 651.604 311.108 651.506 311.65C651.407 312.144 651.358 312.588 651.358 312.982C651.358 313.92 651.703 314.635 652.394 315.128C653.084 315.622 653.849 315.868 654.688 315.868H657.796V319.79H638.556ZM655.946 297.886H670.894L666.972 285.75C666.626 284.616 666.256 283.407 665.862 282.124C665.467 280.792 665.097 279.46 664.752 278.128C664.406 276.796 664.086 275.563 663.79 274.428C663.592 275.218 663.346 276.081 663.05 277.018C662.754 277.906 662.458 278.844 662.162 279.83C661.866 280.768 661.545 281.73 661.2 282.716C660.904 283.654 660.608 284.542 660.312 285.38L655.946 297.886Z" fill="#747373"/>
<path d="M2.76498 409.76V404.725H6.75498C7.70498 404.725 8.52831 404.599 9.22498 404.345C9.98498 404.029 10.555 403.427 10.935 402.54C11.3783 401.654 11.6 400.324 11.6 398.55V352.76C11.6 351.05 11.3783 349.784 10.935 348.96C10.4916 348.137 9.88998 347.599 9.12998 347.345C8.43331 347.092 7.64165 346.965 6.75498 346.965H2.76498V341.93H31.93C40.7333 341.93 47.2566 343.735 51.5 347.345C55.7433 350.955 57.865 355.864 57.865 362.07C57.865 364.92 57.3583 367.644 56.345 370.24C55.3316 372.837 53.7166 375.18 51.5 377.27C49.3466 379.297 46.465 380.912 42.855 382.115C39.3083 383.255 34.97 383.825 29.84 383.825H26.61V399.025C26.61 400.672 26.8316 401.907 27.275 402.73C27.7816 403.554 28.415 404.092 29.175 404.345C29.935 404.599 30.7583 404.725 31.645 404.725H37.44V409.76H2.76498ZM28.89 378.315C31.2333 378.315 33.2283 378.03 34.875 377.46C36.5216 376.827 37.8516 375.909 38.865 374.705C39.9416 373.439 40.7016 371.792 41.145 369.765C41.6516 367.739 41.905 365.3 41.905 362.45C41.905 359.03 41.525 356.244 40.765 354.09C40.005 351.874 38.77 350.227 37.06 349.15C35.4133 348.074 33.165 347.535 30.315 347.535H26.61V378.315H28.89ZM63.346 409.76V404.725H67.336C68.2227 404.725 69.0144 404.599 69.711 404.345C70.471 404.092 71.0727 403.554 71.516 402.73C71.9594 401.907 72.181 400.672 72.181 399.025V352.76C72.181 351.05 71.9594 349.784 71.516 348.96C71.0727 348.137 70.471 347.599 69.711 347.345C69.0144 347.092 68.2227 346.965 67.336 346.965H63.346V341.93H93.936C99.9527 341.93 104.861 342.595 108.661 343.925C112.524 345.255 115.374 347.25 117.211 349.91C119.048 352.507 119.966 355.705 119.966 359.505C119.966 362.862 119.333 365.712 118.066 368.055C116.799 370.399 115.184 372.33 113.221 373.85C111.258 375.37 109.199 376.574 107.046 377.46L118.351 396.935C119.174 398.329 119.966 399.532 120.726 400.545C121.486 401.495 122.214 402.287 122.911 402.92C123.671 403.554 124.463 404.029 125.286 404.345C126.109 404.599 126.964 404.725 127.851 404.725H128.231V409.76H125.096C122.246 409.76 119.744 409.665 117.591 409.475C115.501 409.222 113.664 408.81 112.081 408.24C110.561 407.607 109.199 406.72 107.996 405.58C106.793 404.44 105.716 402.984 104.766 401.21L93.461 380.31H87.191V399.025C87.191 400.672 87.4127 401.907 87.856 402.73C88.2994 403.554 88.901 404.092 89.661 404.345C90.421 404.599 91.2127 404.725 92.036 404.725H96.121V409.76H63.346ZM92.511 374.8C95.4244 374.8 97.7044 374.294 99.351 373.28C101.061 372.204 102.264 370.652 102.961 368.625C103.658 366.535 104.006 363.939 104.006 360.835C104.006 357.605 103.626 355.04 102.866 353.14C102.106 351.177 100.871 349.752 99.161 348.865C97.451 347.979 95.171 347.535 92.321 347.535H87.191V374.8H92.511ZM130.514 409.76V404.725H134.504C135.391 404.725 136.182 404.599 136.879 404.345C137.639 404.092 138.241 403.554 138.684 402.73C139.127 401.907 139.349 400.672 139.349 399.025V353.14C139.349 351.304 139.127 349.974 138.684 349.15C138.304 348.264 137.734 347.694 136.974 347.44C136.277 347.124 135.454 346.965 134.504 346.965H130.514V341.93H183.239L183.619 359.41H176.969L176.494 354.945C176.367 353.362 176.051 352.064 175.544 351.05C175.101 349.974 174.467 349.15 173.644 348.58C172.821 348.01 171.744 347.725 170.414 347.725H154.454V371.475H176.969V377.175H154.454V403.965H173.454C174.721 403.965 175.766 403.649 176.589 403.015C177.412 402.382 178.046 401.527 178.489 400.45C178.996 399.374 179.344 398.139 179.534 396.745L180.294 392.28H186.849L186.184 409.76H130.514ZM214.999 410.71C210.756 410.71 207.209 410.33 204.359 409.57C201.509 408.747 199.229 407.702 197.519 406.435C195.809 405.105 194.574 403.649 193.814 402.065C193.118 400.482 192.769 398.93 192.769 397.41C192.769 395.257 193.276 393.547 194.289 392.28C195.303 390.95 196.633 390 198.279 389.43C199.926 388.86 201.668 388.575 203.504 388.575C203.504 392.185 204.043 395.225 205.119 397.695C206.259 400.102 207.811 401.939 209.774 403.205C211.738 404.409 213.986 405.01 216.519 405.01C220.256 405.01 223.138 404.029 225.164 402.065C227.254 400.102 228.299 397.664 228.299 394.75C228.299 392.597 227.698 390.76 226.494 389.24C225.354 387.657 223.613 386.232 221.269 384.965C218.926 383.635 215.981 382.242 212.434 380.785C209.141 379.455 206.354 378.062 204.074 376.605C201.794 375.149 199.958 373.597 198.564 371.95C197.171 370.24 196.158 368.435 195.524 366.535C194.954 364.572 194.669 362.419 194.669 360.075C194.669 356.212 195.683 352.855 197.709 350.005C199.736 347.155 202.491 344.939 205.974 343.355C209.521 341.772 213.511 340.98 217.944 340.98C222.631 340.98 226.463 341.487 229.439 342.5C232.416 343.45 234.601 344.749 235.994 346.395C237.451 348.042 238.179 349.91 238.179 352C238.179 354.217 237.198 356.085 235.234 357.605C233.334 359.125 230.421 359.885 226.494 359.885C226.494 358.112 226.146 356.212 225.449 354.185C224.816 352.159 223.771 350.417 222.314 348.96C220.858 347.504 218.894 346.775 216.424 346.775C214.714 346.775 213.131 347.124 211.674 347.82C210.281 348.454 209.141 349.435 208.254 350.765C207.431 352.032 207.019 353.615 207.019 355.515C207.019 357.289 207.431 358.935 208.254 360.455C209.078 361.975 210.629 363.495 212.909 365.015C215.189 366.472 218.451 368.055 222.694 369.765C227.064 371.539 230.579 373.375 233.239 375.275C235.899 377.175 237.831 379.329 239.034 381.735C240.238 384.079 240.839 386.802 240.839 389.905C240.839 393.959 239.763 397.569 237.609 400.735C235.519 403.839 232.543 406.277 228.679 408.05C224.816 409.824 220.256 410.71 214.999 410.71ZM248.243 409.76V404.725H252.138C253.088 404.725 253.912 404.599 254.608 404.345C255.368 404.029 255.97 403.427 256.413 402.54C256.857 401.654 257.078 400.324 257.078 398.55V353.045C257.078 351.335 256.857 350.069 256.413 349.245C255.97 348.359 255.368 347.757 254.608 347.44C253.848 347.124 253.025 346.965 252.138 346.965H248.243V341.93H275.983C285.04 341.93 291.817 343.324 296.313 346.11C300.873 348.897 303.153 353.267 303.153 359.22C303.153 362.007 302.647 364.35 301.633 366.25C300.62 368.087 299.227 369.607 297.453 370.81C295.68 371.95 293.59 372.9 291.183 373.66V374.135C294.097 374.832 296.662 375.94 298.879 377.46C301.095 378.98 302.837 380.88 304.104 383.16C305.37 385.377 306.003 388.037 306.003 391.14C306.003 397.347 303.723 402.002 299.163 405.105C294.603 408.209 287.827 409.76 278.833 409.76H248.243ZM278.358 403.965C282.602 403.965 285.61 402.984 287.383 401.02C289.157 399.057 290.043 395.669 290.043 390.855C290.043 387.752 289.695 385.187 288.998 383.16C288.302 381.134 287.098 379.645 285.388 378.695C283.742 377.682 281.462 377.175 278.548 377.175H272.088V403.965H278.358ZM275.698 371.38C278.675 371.38 280.987 370.969 282.633 370.145C284.28 369.322 285.452 368.024 286.148 366.25C286.845 364.414 287.193 362.07 287.193 359.22C287.193 354.914 286.307 351.937 284.533 350.29C282.823 348.58 279.815 347.725 275.508 347.725H272.088V371.38H275.698ZM312.072 409.76V404.725H316.062C317.012 404.725 317.835 404.599 318.532 404.345C319.292 404.029 319.862 403.427 320.242 402.54C320.685 401.654 320.907 400.324 320.907 398.55V353.14C320.907 351.304 320.685 349.974 320.242 349.15C319.862 348.264 319.292 347.694 318.532 347.44C317.835 347.124 317.012 346.965 316.062 346.965H312.072V341.93H344.847V346.965H340.857C339.97 346.965 339.147 347.124 338.387 347.44C337.627 347.694 337.025 348.264 336.582 349.15C336.202 349.974 336.012 351.304 336.012 353.14V398.55C336.012 400.324 336.202 401.654 336.582 402.54C337.025 403.427 337.627 404.029 338.387 404.345C339.147 404.599 339.97 404.725 340.857 404.725H344.847V409.76H312.072ZM362.172 409.76V404.725H366.162C367.112 404.725 367.935 404.599 368.632 404.345C369.392 404.029 369.962 403.427 370.342 402.54C370.785 401.654 371.007 400.324 371.007 398.55V347.725H363.407C361.507 347.725 360.018 348.01 358.942 348.58C357.865 349.087 357.073 349.847 356.567 350.86C356.06 351.874 355.712 353.077 355.522 354.47L354.857 360.36H348.492L348.967 341.93H408.152L408.627 360.36H402.262L401.597 354.47C401.47 353.077 401.122 351.874 400.552 350.86C400.045 349.847 399.253 349.087 398.177 348.58C397.1 348.01 395.612 347.725 393.712 347.725H386.112V398.55C386.112 400.324 386.302 401.654 386.682 402.54C387.125 403.427 387.727 404.029 388.487 404.345C389.247 404.599 390.07 404.725 390.957 404.725H394.947V409.76H362.172ZM412.267 409.76V404.725H416.257C417.144 404.725 417.935 404.599 418.632 404.345C419.392 404.092 419.994 403.554 420.437 402.73C420.88 401.907 421.102 400.672 421.102 399.025V353.14C421.102 351.304 420.88 349.974 420.437 349.15C420.057 348.264 419.487 347.694 418.727 347.44C418.03 347.124 417.207 346.965 416.257 346.965H412.267V341.93H464.992L465.372 359.41H458.722L458.247 354.945C458.12 353.362 457.804 352.064 457.297 351.05C456.854 349.974 456.22 349.15 455.397 348.58C454.574 348.01 453.497 347.725 452.167 347.725H436.207V371.475H458.722V377.175H436.207V403.965H455.207C456.474 403.965 457.519 403.649 458.342 403.015C459.165 402.382 459.799 401.527 460.242 400.45C460.749 399.374 461.097 398.139 461.287 396.745L462.047 392.28H468.602L467.937 409.76H412.267ZM474.332 409.76V404.725H478.322C479.209 404.725 480.001 404.599 480.697 404.345C481.457 404.092 482.059 403.554 482.502 402.73C482.946 401.907 483.167 400.672 483.167 399.025V352.76C483.167 351.05 482.946 349.784 482.502 348.96C482.059 348.137 481.457 347.599 480.697 347.345C480.001 347.092 479.209 346.965 478.322 346.965H474.332V341.93H504.922C510.939 341.93 515.847 342.595 519.647 343.925C523.511 345.255 526.361 347.25 528.197 349.91C530.034 352.507 530.952 355.705 530.952 359.505C530.952 362.862 530.319 365.712 529.052 368.055C527.786 370.399 526.171 372.33 524.207 373.85C522.244 375.37 520.186 376.574 518.032 377.46L529.337 396.935C530.161 398.329 530.952 399.532 531.712 400.545C532.472 401.495 533.201 402.287 533.897 402.92C534.657 403.554 535.449 404.029 536.272 404.345C537.096 404.599 537.951 404.725 538.837 404.725H539.217V409.76H536.082C533.232 409.76 530.731 409.665 528.577 409.475C526.487 409.222 524.651 408.81 523.067 408.24C521.547 407.607 520.186 406.72 518.982 405.58C517.779 404.44 516.702 402.984 515.752 401.21L504.447 380.31H498.177V399.025C498.177 400.672 498.399 401.907 498.842 402.73C499.286 403.554 499.887 404.092 500.647 404.345C501.407 404.599 502.199 404.725 503.022 404.725H507.107V409.76H474.332ZM503.497 374.8C506.411 374.8 508.691 374.294 510.337 373.28C512.047 372.204 513.251 370.652 513.947 368.625C514.644 366.535 514.992 363.939 514.992 360.835C514.992 357.605 514.612 355.04 513.852 353.14C513.092 351.177 511.857 349.752 510.147 348.865C508.437 347.979 506.157 347.535 503.307 347.535H498.177V374.8H503.497ZM541.5 409.76V404.725H545.49C546.44 404.725 547.264 404.599 547.96 404.345C548.72 404.029 549.29 403.427 549.67 402.54C550.114 401.654 550.335 400.324 550.335 398.55V353.14C550.335 351.304 550.114 349.974 549.67 349.15C549.29 348.264 548.72 347.694 547.96 347.44C547.264 347.124 546.44 346.965 545.49 346.965H541.5V341.93H574.275V346.965H570.285C569.399 346.965 568.575 347.124 567.815 347.44C567.055 347.694 566.454 348.264 566.01 349.15C565.63 349.974 565.44 351.304 565.44 353.14V398.55C565.44 400.324 565.63 401.654 566.01 402.54C566.454 403.427 567.055 404.029 567.815 404.345C568.575 404.599 569.399 404.725 570.285 404.725H574.275V409.76H541.5ZM577.35 409.76V404.725H578.49C579.63 404.725 580.644 404.535 581.53 404.155C582.417 403.775 583.209 403.11 583.905 402.16C584.665 401.147 585.394 399.69 586.09 397.79L606.705 341.93H619.72L639.575 397.885C640.209 399.659 640.874 401.052 641.57 402.065C642.33 403.015 643.122 403.712 643.945 404.155C644.832 404.535 645.782 404.725 646.795 404.725H648.505V409.76H617.155V404.725H620.86C621.81 404.725 622.729 404.44 623.615 403.87C624.502 403.3 624.945 402.35 624.945 401.02C624.945 400.514 624.882 400.007 624.755 399.5C624.692 398.994 624.597 398.519 624.47 398.075C624.344 397.632 624.217 397.252 624.09 396.935L620.765 387.435H597.68L594.925 395.605C594.799 396.112 594.64 396.682 594.45 397.315C594.26 397.949 594.102 398.614 593.975 399.31C593.849 399.944 593.785 400.514 593.785 401.02C593.785 402.224 594.229 403.142 595.115 403.775C596.002 404.409 596.984 404.725 598.06 404.725H602.05V409.76H577.35ZM599.675 381.64H618.865L613.83 366.06C613.387 364.604 612.912 363.052 612.405 361.405C611.899 359.695 611.424 357.985 610.98 356.275C610.537 354.565 610.125 352.982 609.745 351.525C609.492 352.539 609.175 353.647 608.795 354.85C608.415 355.99 608.035 357.194 607.655 358.46C607.275 359.664 606.864 360.899 606.42 362.165C606.04 363.369 605.66 364.509 605.28 365.585L599.675 381.64ZM651.159 409.76V404.725H655.149C656.035 404.725 656.827 404.599 657.524 404.345C658.284 404.029 658.885 403.427 659.329 402.54C659.772 401.654 659.994 400.324 659.994 398.55V352.76C659.994 351.05 659.772 349.784 659.329 348.96C658.885 348.137 658.284 347.599 657.524 347.345C656.827 347.092 656.035 346.965 655.149 346.965H651.159V341.93H672.249L705.784 389.335V352.76C705.784 351.05 705.562 349.784 705.119 348.96C704.675 348.137 704.074 347.599 703.314 347.345C702.617 347.092 701.825 346.965 700.939 346.965H696.949V341.93H721.744V346.965H717.754C716.867 346.965 716.044 347.124 715.284 347.44C714.587 347.694 714.017 348.264 713.574 349.15C713.13 349.974 712.909 351.304 712.909 353.14V409.76H704.169L667.119 357.415V398.55C667.119 400.324 667.34 401.654 667.784 402.54C668.227 403.427 668.797 404.029 669.494 404.345C670.254 404.599 671.077 404.725 671.964 404.725H675.954V409.76H651.159ZM723.747 409.76V404.725H724.887C726.027 404.725 727.04 404.535 727.927 404.155C728.813 403.775 729.605 403.11 730.302 402.16C731.062 401.147 731.79 399.69 732.487 397.79L753.102 341.93H766.117L785.972 397.885C786.605 399.659 787.27 401.052 787.967 402.065C788.727 403.015 789.518 403.712 790.342 404.155C791.228 404.535 792.178 404.725 793.192 404.725H794.902V409.76H763.552V404.725H767.257C768.207 404.725 769.125 404.44 770.012 403.87C770.898 403.3 771.342 402.35 771.342 401.02C771.342 400.514 771.278 400.007 771.152 399.5C771.088 398.994 770.993 398.519 770.867 398.075C770.74 397.632 770.613 397.252 770.487 396.935L767.162 387.435H744.077L741.322 395.605C741.195 396.112 741.037 396.682 740.847 397.315C740.657 397.949 740.498 398.614 740.372 399.31C740.245 399.944 740.182 400.514 740.182 401.02C740.182 402.224 740.625 403.142 741.512 403.775C742.398 404.409 743.38 404.725 744.457 404.725H748.447V409.76H723.747ZM746.072 381.64H765.262L760.227 366.06C759.783 364.604 759.308 363.052 758.802 361.405C758.295 359.695 757.82 357.985 757.377 356.275C756.933 354.565 756.522 352.982 756.142 351.525C755.888 352.539 755.572 353.647 755.192 354.85C754.812 355.99 754.432 357.194 754.052 358.46C753.672 359.664 753.26 360.899 752.817 362.165C752.437 363.369 752.057 364.509 751.677 365.585L746.072 381.64Z" fill="#747373"/>
<path d="M345.275 498V495.06H347.135C347.855 495.06 348.495 494.98 349.055 494.82C349.615 494.62 350.055 494.24 350.375 493.68C350.735 493.08 350.915 492.2 350.915 491.04V461.88C350.915 460.76 350.735 459.94 350.375 459.42C350.015 458.86 349.555 458.5 348.995 458.34C348.435 458.18 347.815 458.1 347.135 458.1H345.275V455.16H364.535C368.855 455.16 372.535 455.96 375.575 457.56C378.655 459.12 381.015 461.46 382.655 464.58C384.295 467.7 385.115 471.54 385.115 476.1C385.115 480.46 384.335 484.28 382.775 487.56C381.255 490.84 378.975 493.4 375.935 495.24C372.895 497.08 369.075 498 364.475 498H345.275ZM363.155 494.52C366.075 494.52 368.495 493.8 370.415 492.36C372.375 490.88 373.835 488.76 374.795 486C375.795 483.24 376.295 479.92 376.295 476.04C376.295 472.16 375.795 468.94 374.795 466.38C373.835 463.78 372.375 461.84 370.415 460.56C368.495 459.24 366.095 458.58 363.215 458.58H359.075V494.52H363.155ZM411.573 498.6C407.133 498.6 403.453 497.68 400.533 495.84C397.613 494 395.413 491.42 393.933 488.1C392.493 484.78 391.773 480.9 391.773 476.46C391.773 472.02 392.493 468.16 393.933 464.88C395.413 461.6 397.613 459.06 400.533 457.26C403.493 455.42 407.193 454.5 411.633 454.5C415.873 454.5 419.453 455.42 422.373 457.26C425.293 459.06 427.513 461.62 429.033 464.94C430.553 468.22 431.313 472.08 431.313 476.52C431.313 480.96 430.553 484.84 429.033 488.16C427.513 491.44 425.273 494 422.313 495.84C419.393 497.68 415.813 498.6 411.573 498.6ZM411.573 494.94C413.613 494.94 415.313 494.54 416.673 493.74C418.073 492.9 419.193 491.7 420.033 490.14C420.913 488.54 421.553 486.6 421.953 484.32C422.353 482.04 422.553 479.44 422.553 476.52C422.553 473.64 422.353 471.06 421.953 468.78C421.553 466.5 420.933 464.58 420.093 463.02C419.253 461.42 418.133 460.22 416.733 459.42C415.333 458.58 413.633 458.16 411.633 458.16C409.633 458.16 407.913 458.58 406.473 459.42C405.073 460.22 403.933 461.42 403.053 463.02C402.213 464.58 401.593 466.5 401.193 468.78C400.793 471.06 400.593 473.64 400.593 476.52C400.593 479.44 400.793 482.04 401.193 484.32C401.593 486.6 402.213 488.54 403.053 490.14C403.933 491.7 405.073 492.9 406.473 493.74C407.913 494.54 409.613 494.94 411.573 494.94Z" fill="#747373"/>
<path d="M434.959 505.575V500.645H436.489C438.302 500.645 440.031 500.163 441.674 499.2C443.317 498.236 444.649 496.65 445.669 494.44C446.689 492.23 447.199 489.226 447.199 485.43V434.175C447.199 432.645 447.001 431.511 446.604 430.775C446.207 430.038 445.669 429.556 444.989 429.33C444.366 429.103 443.657 428.99 442.864 428.99H439.294V424.485H468.619V428.99H465.049C464.256 428.99 463.519 429.131 462.839 429.415C462.159 429.641 461.621 430.151 461.224 430.945C460.827 431.681 460.629 432.871 460.629 434.515V485.345C460.629 489.198 460.006 492.428 458.759 495.035C457.512 497.641 455.812 499.71 453.659 501.24C451.562 502.77 449.154 503.875 446.434 504.555C443.714 505.235 440.909 505.575 438.019 505.575H434.959ZM472.908 485.175V480.67H476.478C477.272 480.67 477.98 480.556 478.603 480.33C479.283 480.103 479.822 479.621 480.218 478.885C480.615 478.148 480.813 477.043 480.813 475.57V434.175C480.813 432.645 480.615 431.511 480.218 430.775C479.822 430.038 479.283 429.556 478.603 429.33C477.98 429.103 477.272 428.99 476.478 428.99H472.908V424.485H502.233V428.99H498.663C497.87 428.99 497.133 429.131 496.453 429.415C495.773 429.641 495.235 430.151 494.838 430.945C494.442 431.681 494.243 432.871 494.243 434.515V454.32L507.418 439.955C508.665 438.651 509.628 437.518 510.308 436.555C510.988 435.535 511.47 434.628 511.753 433.835C512.093 432.985 512.263 432.163 512.263 431.37C512.263 430.746 512.093 430.265 511.753 429.925C511.47 429.528 510.988 429.273 510.308 429.16C509.628 428.99 508.693 428.905 507.503 428.905V424.485H530.538V428.905C529.008 428.905 527.563 429.216 526.203 429.84C524.843 430.463 523.512 431.341 522.208 432.475C520.962 433.608 519.658 434.911 518.298 436.385L507.078 448.71L522.888 473.785C523.738 475.088 524.532 476.193 525.268 477.1C526.062 477.95 526.827 478.658 527.563 479.225C528.357 479.735 529.15 480.103 529.943 480.33C530.793 480.556 531.672 480.67 532.578 480.67H532.918V485.175H528.328C525.098 485.175 522.435 485.033 520.338 484.75C518.242 484.41 516.513 483.928 515.153 483.305C513.85 482.625 512.773 481.803 511.923 480.84C511.073 479.876 510.252 478.715 509.458 477.355L497.983 457.805L494.243 460.78V475.145C494.243 476.731 494.442 477.921 494.838 478.715C495.235 479.508 495.773 480.046 496.453 480.33C497.133 480.556 497.87 480.67 498.663 480.67H502.233V485.175H472.908Z" fill="#747373"/>
<path fill-rule="evenodd" clip-rule="evenodd" d="M539.654 201.939L543.684 195.299L540.345 190.377L534.818 189.232C532.285 186.255 534.703 184.195 533.897 180.646C530.558 175.838 523.535 175.266 522.153 172.518C524.225 177.899 529.522 182.478 528.255 188.888L522.498 191.75L513.747 192.094L504.076 191.75L498.779 194.956H488.532L481.393 191.521L468.036 191.064L457.213 189.804L446.735 183.966L447.081 178.128L443.857 173.892H440.633L439.481 172.518L437.754 165.077L431.652 160.155L435.682 158.437V155.575L431.421 154.431L429.349 145.845L427.622 135.427L425.895 130.963L426.24 122.262L429.119 116.882L432.573 107.953L434.991 102.687V97.7641L431.767 93.5284L431.421 88.4914L434.876 89.8651L438.1 88.4914L442.13 83.6833L443.281 79.6766L445.008 75.4409L449.268 79.4476L452.723 72.9224L457.674 67.6564L461.473 66.8551L466.079 59.0706L468.958 61.5891L476.442 57.3534L474.024 54.4915L474.715 46.3635L475.866 42.3568L480.702 33.4275L484.386 31.3669L483.58 26.9023L486.92 21.8653L491.756 16.1414L492.677 12.1347L499.009 15.9124L506.033 13.3939H514.784L518.123 8.35688L526.874 6.98315L534.358 2.0606L549.672 0L564.064 8.58584L583.063 3.20538L591.238 7.67001L600.449 9.04375L609.66 10.4175L615.187 15.2255L615.993 25.643L622.211 28.8484L626.356 37.4343L628.313 37.5487L626.356 44.1884L629.234 49.6834L636.143 50.0268L643.051 54.0335L646.275 58.8416L655.487 62.5049L656.638 62.9628L663.662 64.5655L666.655 69.946L664.698 80.7069L665.389 81.3937L669.188 85.6294L667.116 92.6126L670.109 95.818L666.655 105.205L675.291 112.303L671.606 114.249L674.6 119.744L674.945 124.666L679.551 129.474L685.308 140.235L684.502 142.296L689.914 156.835L683.581 163.131L681.393 167.596L681.739 171.717L675.176 174.121H669.879L666.08 180.303L661.128 179.959L654.105 185.454V186.255L648.693 192.895L644.894 191.521L638.561 187.4L630.386 186.255L624.283 187.858L620.599 189.575L613.23 193.239L607.703 192.895L600.679 187.858L592.735 188.774L588.589 192.208L579.839 192.552H568.555L566.137 189.575H562.913L561.761 192.552L562.222 193.353L565.101 199.191L566.482 203.313H566.367L557.156 203.656L554.623 204.801H550.247L548.981 204L541.151 203.656L539.654 201.939ZM578.572 114.821C577.766 115.737 577.651 116.996 577.306 118.485C576.384 122.491 575.233 126.613 573.736 130.39C567.864 144.471 558.768 139.663 556.465 154.316C554.162 169.542 556.465 182.02 568.67 163.818C569.936 161.872 570.512 158.781 571.548 156.491C575.118 148.592 578.802 143.67 579.839 133.939C580.414 130.161 580.184 117.569 578.572 114.821ZM538.042 167.481L542.303 158.208C547.714 145.959 547.484 138.862 544.951 126.04C544.721 124.666 544.836 123.98 543.799 123.407C542.187 126.384 542.418 136.687 538.273 140.121C536.085 141.953 535.509 140.693 534.473 143.899C531.134 154.431 535.855 166.909 538.042 167.481ZM530.904 124.895C532.631 123.98 536.776 112.188 532.976 103.373C532.285 101.656 531.594 100.283 530.904 98.6799C530.213 97.0772 530.098 95.0166 529.292 93.5284C528.37 91.8112 524.916 87.0032 521.923 87.4611C518.353 88.1479 514.899 102.572 521.692 107.151C525.377 109.67 526.528 109.326 528.601 113.905C529.982 116.996 530.098 123.293 530.904 124.895ZM569.706 82.0806C568.785 84.4847 566.252 89.6362 564.755 92.0402C557.156 104.976 559.228 97.5351 555.774 113.219C555.198 115.852 551.974 122.72 554.623 125.01C557.616 127.643 563.143 122.033 564.179 120.889C566.482 118.37 568.67 114.936 568.785 110.357C569.015 105.32 568.209 100.626 568.325 95.589C568.555 91.2388 569.937 86.0873 569.706 82.0806ZM410.926 233.191H703.731V240.518H410.926V233.191ZM454.91 95.0166C450.305 103.259 449.153 112.417 448.232 121.347C453.529 136.572 465.273 145.501 473.563 157.522C464.352 137.831 455.601 117.111 454.91 95.0166ZM472.757 107.266C468.497 89.0638 472.872 82.9964 479.32 64.3365C466.54 84.8281 457.098 91.0099 470.569 113.333C471.03 110.7 472.642 107.037 472.757 107.266ZM632.458 99.9392C632.919 99.9392 633.149 102.114 633.379 103.259C652.953 69.1446 640.864 76.8146 632.113 59.0706C638.446 77.9594 641.209 85.4005 632.458 99.9392ZM639.942 143.899C640.403 143.784 636.949 151.225 637.179 152.485C655.371 118.828 664.928 130.39 653.759 90.7809C653.299 119.286 645.93 132.794 639.942 143.899ZM512.596 61.1312C507.99 58.6127 507.069 57.3534 505.688 40.6396C496.131 67.084 504.997 74.4106 507.76 86.4308C513.748 77.387 515.244 69.8315 512.596 61.1312ZM551.399 91.3533C558.768 79.6766 565.216 39.3804 552.665 19.0033C562.107 45.4477 544.03 47.7373 545.642 67.084C544.721 73.0369 553.586 69.946 551.399 91.3533ZM598.722 73.6093C597.801 59.2995 605.63 54.2625 592.619 31.138C596.88 62.5049 585.481 52.4309 585.711 68.5722C586.747 75.0975 592.274 98.3365 598.722 73.6093ZM591.698 169.885C623.132 142.983 619.447 96.8483 606.897 74.4106C609.085 115.966 590.432 124.208 593.195 140.35C611.157 144.242 589.395 162.787 591.698 169.885ZM624.398 167.939C634.416 151.111 626.356 153.858 631.077 110.815C621.174 163.589 600.449 164.734 600.564 180.761C613.805 173.663 617.72 176.525 624.398 167.939ZM515.475 138.976C511.214 131.421 494.749 113.905 494.864 79.7911C488.762 145.272 511.79 148.707 511.905 164.963C518.583 154.202 517.547 149.852 515.475 138.976ZM502.924 187.515C508.451 172.976 480.241 156.262 477.248 115.966C479.32 157.865 477.248 178.242 488.992 180.989C498.088 183.622 498.319 182.363 502.924 187.515ZM580.069 178.929C584.329 171.373 580.414 174.464 581.335 159.468C578.457 170.686 578.802 169.656 575.463 174.808C572.585 179.501 572.93 188.774 580.069 178.929ZM531.825 28.7339C530.443 23.239 527.795 22.5521 526.874 9.73062C525.722 24.2693 521.117 22.5521 523.074 33.6565C520.886 48.7676 533.897 35.7171 531.825 28.7339Z" fill="#004411"/>
</svg>
